<?xml version="1.0" standalone="no"?>
<!DOCTYPE svg PUBLIC "-//W3C//DTD SVG 1.1//EN" "http://www.w3.org/Graphics/SVG/1.1/DTD/svg11.dtd" >
<svg xmlns="http://www.w3.org/2000/svg">
<metadata>
Created by FontPrep 20130207 at Thu Mar  3 18:07:17 2016
 By Rami Jegham
Digitised data (c) 2004 Monotype Imaging. All Rights Reserved. Neo Sans is designed by Sebastian Lester.
</metadata>
<defs>
<font id="6b94167f362721a15c8c80567e8945f1" horiz-adv-x='1024' >
  <font-face 
    font-family="NeoSansStd-Regular"
    font-weight="400"
    font-stretch="normal"
    units-per-em="2048"
    panose-1="2 11 5 4 3 5 4 4 2 4"
    ascent="1567"
    descent="-481"
    x-height="1126"
    cap-height="1522"
    bbox="-252.667 -442.015 2855 2007.02"
    underline-thickness="116"
    underline-position="-43"
    unicode-range="U+0020-FB04"
  />
<missing-glyph horiz-adv-x="1024" 
d="M842 98l-330 496l-332 -496h662zM901 1178l-332 -496l332 -498v994zM123 1178v-992q82 125 246 371l84 125zM180 1266l332 -498l330 498h-662zM25 0v1362h972v-1362h-972z" />
    <glyph glyph-name="f_f" unicode="ff" horiz-adv-x="1433" 
d="M1382 1513v-67q0 -31 -36 -31h-99q-73 0 -99 -29t-26 -112v-148h215q15 0 27 -10t12 -26v-80q0 -35 -39 -35h-215v-934q0 -17 -12 -29t-27 -12h-100q-16 0 -29 12q-12 12 -12 29v934h-473v-934q0 -17 -12 -29t-27 -12h-100q-16 0 -29 12q-12 12 -12 29v934l-199 22
q-39 4 -39 37v56q0 16 11 26t28 10h199v148q0 158 71 221q72 63 220 63t149 -45v-67q0 -31 -37 -31h-98q-74 0 -100 -29t-25 -112v-148h473v148q0 158 72 221t220 63t148 -45z" />
    <glyph glyph-name="f_i" unicode="fi" horiz-adv-x="1286" 
d="M1126 1348q0 -16 -12 -28t-29 -13h-104q-16 0 -29 12q-12 12 -12 29v163q0 17 12 29t29 12h104q17 0 29 -12t12 -29v-163zM729 1513v-67q0 -31 -37 -31h-98q-74 0 -100 -29t-25 -112v-148h612q17 0 29 -12t12 -29v-1044q0 -17 -12 -29t-29 -12h-98q-16 0 -29 12
q-12 12 -12 29v934h-473v-934q0 -17 -12 -29t-27 -12h-100q-16 0 -29 12q-12 12 -12 29v934l-199 22q-39 4 -39 37v56q0 16 11 26t28 10h199v148q0 158 71 221q72 63 220 63t149 -45z" />
    <glyph glyph-name="f_l" unicode="fl" horiz-adv-x="1280" 
d="M1122 41q0 -17 -10 -29t-27 -12h-106q-14 0 -26 12q-11 12 -11 29v1374h-336q-76 0 -106 -30t-31 -111v-148h215q16 0 28 -10t11 -26v-80q0 -35 -39 -35h-215v-934q0 -17 -12 -29t-27 -12h-100q-16 0 -29 12q-12 12 -12 29v934l-199 22q-39 4 -39 37v56q0 16 11 26t28 10
h199v148q0 156 77 220t222 65q244 0 391 -19h106q17 0 27 -11t10 -28v-1460z" />
    <glyph glyph-name="f_f_i" unicode="ffi" horiz-adv-x="1939" 
d="M1780 1348q0 -16 -12 -28t-29 -13h-105q-16 0 -28 12t-13 29v163q1 17 13 29t28 12h105q16 0 28 -12t13 -29v-163zM1382 1513v-67q0 -31 -36 -31h-99q-73 0 -99 -29t-26 -112v-148h613q16 0 28 -12t13 -29v-1044q0 -17 -12 -29t-29 -12h-99q-16 0 -28 12t-13 29v934h-473
v-934q0 -17 -12 -29t-27 -12h-100q-16 0 -29 12q-12 12 -12 29v934h-473v-934q0 -17 -12 -29t-27 -12h-100q-16 0 -29 12q-12 12 -12 29v934l-199 22q-39 4 -39 37v56q0 16 11 26t28 10h199v148q0 158 71 221q72 63 220 63t149 -45v-67q0 -31 -37 -31h-98q-74 0 -100 -29
t-25 -112v-148h473v148q0 158 72 221t220 63t148 -45z" />
    <glyph glyph-name="f_f_l" unicode="ffl" horiz-adv-x="1933" 
d="M729 1513v-67q0 -31 -37 -31h-98q-74 0 -100 -29t-25 -112v-148h473v148q0 156 77 220t222 65q242 0 389 -19h107q35 0 37 -39v-1460q0 -17 -10 -29t-27 -12h-107q-14 0 -25 12t-12 29v1374h-333q-76 0 -107 -30t-31 -111v-148h215q15 0 27 -10t12 -26v-80q0 -35 -39 -35
h-215v-934q0 -17 -12 -29t-27 -12h-100q-16 0 -29 12q-12 12 -12 29v934h-473v-934q0 -17 -12 -29t-27 -12h-100q-16 0 -29 12q-12 12 -12 29v934l-199 22q-39 4 -39 37v56q0 16 11 26t28 10h199v148q0 158 71 221q72 63 220 63t149 -45z" />
    <glyph glyph-name="f_b" unicode="fb" horiz-adv-x="1910" 
d="M1628 492v147q0 172 -60 258t-214 86t-232 -14v-813q139 -12 240 -13q145 0 206 86q60 87 60 263zM1808 492q0 -238 -112 -372t-321 -134q-210 0 -390 34q-27 4 -35 14t-8 34v1347h-336q-76 0 -106 -30t-31 -111v-148h215q16 0 28 -10t11 -26v-80q0 -35 -39 -35h-215
v-934q0 -17 -12 -29t-27 -12h-100q-16 0 -29 12q-12 12 -12 29v934l-199 22q-39 4 -39 37v56q0 16 11 26t28 10h199v148q0 156 77 220t222 65q244 0 391 -19h104q15 0 27 -11t12 -28v-381q111 20 240 21q221 0 334 -129t112 -373v-147z" />
    <glyph glyph-name="f_f_b" unicode="ffb" horiz-adv-x="2541" 
d="M2259 492v147q0 172 -60 258t-213 86t-233 -14v-813q139 -12 240 -13q145 0 206 86q60 87 60 263zM729 1513v-67q0 -31 -37 -31h-98q-74 0 -100 -29t-25 -112v-148h473v148q0 156 77 220t222 65q221 0 369 -19h104q16 0 28 -11t11 -28v-381q111 20 240 21q221 0 334 -129
t112 -373v-147q1 -238 -111 -372t-322 -134t-390 34q-27 4 -35 14t-8 34v1347h-313q-76 0 -107 -30t-31 -111v-148h215q15 0 27 -10t12 -26v-80q0 -35 -39 -35h-215v-934q0 -17 -12 -29t-27 -12h-100q-16 0 -29 12q-12 12 -12 29v934h-473v-934q0 -17 -12 -29t-27 -12h-100
q-16 0 -29 12q-12 12 -12 29v934l-199 22q-39 4 -39 37v56q0 16 11 26t28 10h199v148q0 158 71 221q72 63 220 63t149 -45z" />
    <glyph glyph-name="f_f_h" unicode="ffh" horiz-adv-x="2574" 
d="M729 1513v-67q0 -31 -37 -31h-98q-74 0 -100 -29t-25 -112v-148h473v148q0 156 77 220t222 65q221 0 369 -19h104q16 0 28 -11q11 -12 11 -28v-424q145 63 315 63t268 -104t99 -321v-674q0 -17 -12 -29t-29 -12h-98q-16 0 -29 12q-12 12 -12 29v674q0 145 -56 207
t-163 61q-156 0 -283 -57v-885q0 -17 -12 -29t-29 -12h-100q-16 0 -28 12q-11 12 -11 29v1374h-313q-76 0 -107 -30t-31 -111v-148h215q15 0 27 -10t12 -26v-80q0 -35 -39 -35h-215v-934q0 -17 -12 -29t-27 -12h-100q-16 0 -29 12q-12 12 -12 29v934h-473v-934
q0 -17 -12 -29t-27 -12h-100q-16 0 -29 12q-12 12 -12 29v934l-199 22q-39 4 -39 37v56q0 16 11 26t28 10h199v148q0 158 71 221q72 63 220 63t149 -45z" />
    <glyph glyph-name="f_f_k" unicode="ffk" horiz-adv-x="2449" 
d="M729 1513v-67q0 -31 -37 -31h-98q-74 0 -100 -29t-25 -112v-148h473v148q0 156 77 220t222 65q221 0 369 -19h104q16 0 28 -11t11 -28v-854l410 461q16 18 41 18h143q31 0 31 -22q0 -12 -11 -23l-450 -487l455 -549q6 -6 6 -18q0 -27 -23 -27h-147q-27 0 -47 27l-408 503
v-489q0 -17 -12 -29t-29 -12h-98q-16 0 -29 12q-12 12 -12 29v1374h-313q-76 0 -107 -30t-31 -111v-148h215q15 0 27 -10t12 -26v-80q0 -35 -39 -35h-215v-934q0 -17 -12 -29t-27 -12h-100q-16 0 -29 12q-12 12 -12 29v934h-473v-934q0 -17 -12 -29t-27 -12h-100
q-16 0 -29 12q-12 12 -12 29v934l-199 22q-39 4 -39 37v56q0 16 11 26t28 10h199v148q0 158 71 221q72 63 220 63t149 -45z" />
    <glyph glyph-name="f_h" unicode="fh" horiz-adv-x="1943" 
d="M1122 1501v-424q146 63 316 63t268 -104t98 -321v-674q0 -17 -12 -29t-29 -12h-98q-16 0 -29 12q-12 12 -12 29v674q0 145 -56 207t-163 61q-156 0 -283 -57v-885q0 -17 -12 -29t-29 -12h-100q-16 0 -28 12q-11 12 -11 29v1374h-336q-76 0 -106 -30t-31 -111v-148h215
q16 0 28 -10t11 -26v-80q0 -35 -39 -35h-215v-934q0 -17 -12 -29t-27 -12h-100q-16 0 -29 12q-12 12 -12 29v934l-199 22q-39 4 -39 37v56q0 16 11 26t28 10h199v148q0 156 77 220t222 65q244 0 391 -19h104q16 0 28 -11q11 -12 11 -28z" />
    <glyph glyph-name="f_j" unicode="fj" horiz-adv-x="1286" 
d="M1126 1346q0 -16 -12 -28t-29 -11h-104q-16 0 -29 11q-12 11 -12 28v165q0 17 12 29t29 12h104q17 0 29 -12t12 -29v-165zM729 1513v-67q0 -31 -37 -31h-98q-74 0 -100 -29t-25 -112v-148h616q37 0 37 -41v-1216q0 -154 -62 -213t-194 -59q-55 0 -101 7t-46 34v75
q0 29 43 29h84q57 0 77 25q19 25 19 102v1106h-473v-934q0 -17 -12 -29t-27 -12h-100q-16 0 -29 12q-12 12 -12 29v934l-199 22q-39 4 -39 37v56q0 16 11 26t28 10h199v148q0 158 71 221q72 63 220 63t149 -45z" />
    <glyph glyph-name="f_f_j" unicode="ffj" horiz-adv-x="1939" 
d="M1780 1346q0 -16 -12 -28t-29 -11h-105q-16 0 -28 11t-13 28v165q1 17 13 29t28 12h105q16 0 28 -12t13 -29v-165zM1382 1513v-67q0 -31 -36 -31h-99q-73 0 -99 -29t-26 -112v-148h617q37 0 37 -41v-1216q0 -154 -62 -213t-194 -59q-56 0 -102 7t-46 34v75q0 29 43 29h84
q57 0 77 25q19 25 19 102v1106h-473v-934q0 -17 -12 -29t-27 -12h-100q-16 0 -29 12q-12 12 -12 29v934h-473v-934q0 -17 -12 -29t-27 -12h-100q-16 0 -29 12q-12 12 -12 29v934l-199 22q-39 4 -39 37v56q0 16 11 26t28 10h199v148q0 158 71 221q72 63 220 63t149 -45v-67
q0 -31 -37 -31h-98q-74 0 -100 -29t-25 -112v-148h473v148q0 158 72 221t220 63t148 -45z" />
    <glyph glyph-name="f_k" unicode="fk" horiz-adv-x="1818" 
d="M942 1415h-336q-76 0 -106 -30t-31 -111v-148h215q16 0 28 -10t11 -26v-80q0 -35 -39 -35h-215v-934q0 -17 -12 -29t-27 -12h-100q-16 0 -29 12q-12 12 -12 29v934l-199 22q-39 4 -39 37v56q0 16 11 26t28 10h199v148q0 156 77 220t222 65q244 0 391 -19h104q15 0 27 -11
t12 -28v-854l410 461q16 18 41 18h143q31 0 31 -22q0 -12 -10 -23l-451 -487l455 -549q6 -6 6 -18q0 -27 -23 -27h-147q-27 0 -47 27l-408 503v-489q0 -17 -12 -29t-29 -12h-98q-16 0 -29 12q-12 12 -12 29v1374z" />
    <glyph glyph-name=".notdef" horiz-adv-x="1024" 
d="M842 98l-330 496l-332 -496h662zM901 1178l-332 -496l332 -498v994zM123 1178v-992q82 125 246 371l84 125zM180 1266l332 -498l330 498h-662zM25 0v1362h972v-1362h-972z" />
    <glyph glyph-name=".null" horiz-adv-x="0" 
 />
    <glyph glyph-name="nonmarkingreturn" horiz-adv-x="681" 
 />
    <glyph glyph-name="space" unicode=" " horiz-adv-x="505" 
 />
    <glyph glyph-name="exclam" unicode="!" horiz-adv-x="444" 
d="M311 39q0 -39 -39 -39h-98q-16 0 -28 11q-11 11 -11 28v192q0 15 11 27t28 12h98q16 0 28 -11t11 -28v-192zM186 397q-16 1 -28 13t-13 26l-14 1065q0 15 12 27t29 12h102q16 0 29 -11q12 -12 12 -28l-16 -1065q0 -16 -11 -27t-28 -12h-74z" />
    <glyph glyph-name="quotedbl" unicode="&#x22;" horiz-adv-x="741" 
d="M334 1518q0 -10 -2 -17l-119 -387q-10 -39 -39 -39h-96q-18 1 -18 17t1 22l95 387q8 39 41 39h114q23 1 23 -22zM682 1518q0 -10 -2 -17l-119 -387q-10 -39 -39 -39h-96q-18 0 -18 21q0 12 2 18l94 387q8 39 41 39h114q23 1 23 -22z" />
    <glyph glyph-name="numbersign" unicode="#" horiz-adv-x="1351" 
d="M846 961h-318l-36 -414h317zM1249 1049v-5l-4 -45q-4 -39 -41 -38h-198l-37 -414h200q33 0 33 -39v-4l-4 -43q-4 -39 -41 -39h-201l-32 -383q-4 -39 -37 -39h-90q-33 0 -33 35v4l33 383h-318l-33 -383q-4 -39 -36 -39h-93q-14 0 -23 10t-9 25v4l32 383h-190q-33 0 -33 39
v4l4 43q4 39 41 39h191l37 414h-193q-33 0 -33 38v5l4 45q4 39 41 38h191l35 396q2 16 13 27t26 12h92q31 0 30 -35v-4l-34 -396h317l35 396q4 39 39 39h90q31 0 31 -35v-4l-35 -396h201q32 1 32 -38z" />
    <glyph glyph-name="dollar" unicode="$" 
d="M1081 380q0 -138 -86 -248t-288 -138v-193q-1 -16 -13 -28t-28 -13h-97q-16 0 -28 12t-13 29v185q-147 2 -232 17t-92 23t-7 25v84q0 33 34 33h7q211 -18 360 -18q289 0 289 245q0 76 -51 131t-195 144l-199 121q-147 90 -215 177t-67 206q0 311 368 356v176q0 16 12 28
t29 13h97q16 0 28 -12t13 -29v-170q164 -6 299 -27q35 -6 34 -34v-89q0 -33 -34 -32h-5q-270 18 -352 18q-161 0 -231 -44t-70 -154q0 -70 49 -121t174 -127l189 -113q178 -103 250 -199t71 -234z" />
    <glyph glyph-name="percent" unicode="%" horiz-adv-x="1626" 
d="M516 1016v190q0 215 -148 215t-149 -215v-190q1 -215 149 -215t148 215zM1407 317v191q-1 215 -149 215t-148 -215v-191q0 -215 148 -215t149 215zM643 1016q0 -164 -72 -248q-73 -84 -203 -84t-203 84t-73 248v190q0 166 72 248t205 82q274 0 274 -330v-190zM1331 1512
q0 -9 -10 -29l-856 -1450q-23 -41 -45 -41h-101q-20 0 -20 15t8 26l856 1450q23 39 47 39h105q16 -1 16 -10zM1534 317q0 -163 -72 -247t-202 -84t-204 84q-73 84 -73 247v191q0 166 73 249t204 83q130 0 202 -83t72 -249v-191z" />
    <glyph glyph-name="ampersand" unicode="&#x26;" horiz-adv-x="1388" 
d="M297 377v-17q0 -117 89 -175t224 -58q184 0 305 104l-407 437q-123 -78 -167 -138t-44 -153zM844 1194v16q0 188 -238 189q-262 0 -262 -189v-16q0 -62 31 -122t143 -185l21 -23l69 43q148 89 192 145t44 142zM1313 23q0 -23 -23 -23h-141q-18 0 -33 14l-102 111
q-162 -139 -384 -139t-364 83q-157 89 -157 291v17q0 125 67 213q68 88 227 190l-14 17q-133 151 -173 235t-40 162v16q0 160 114 243t304 83t305 -85t115 -241v-16q0 -109 -64 -195t-250 -211l-57 -38l371 -400q80 141 80 361v28q0 33 32 33h88q35 0 35 -33v-28
q0 -281 -129 -471l183 -195q10 -10 10 -22z" />
    <glyph glyph-name="quotesingle" unicode="'" horiz-adv-x="393" 
d="M334 1518q0 -10 -2 -17l-119 -387q-10 -39 -39 -39h-96q-18 1 -18 17t1 22l95 387q8 39 41 39h114q23 1 23 -22z" />
    <glyph glyph-name="parenleft" unicode="(" horiz-adv-x="624" 
d="M573 -414q0 -14 -20 -14h-96q-29 0 -47 22q-135 164 -211 419t-76 530v26q0 273 76 529t211 420q18 23 47 22h96q20 0 20 -14t-6 -23q-264 -389 -264 -934v-26q0 -545 264 -934q6 -9 6 -23z" />
    <glyph glyph-name="parenright" unicode=")" horiz-adv-x="624" 
d="M530 543q0 -273 -76 -529t-210 -420q-18 -23 -47 -22h-97q-20 0 -20 14t6 23q264 389 264 934v26q0 545 -264 934q-6 9 -6 23t20 14h97q29 0 47 -22q135 -164 211 -419t75 -530v-26z" />
    <glyph glyph-name="asterisk" unicode="*" horiz-adv-x="952" 
d="M416 1495q0 39 30 39h62q31 0 31 -39l-2 -268l256 84q12 4 18 4q20 0 27 -21l18 -59q2 -4 2 -10q0 -20 -29 -31l-256 -80l158 -217q10 -13 10 -27t-12 -22l-49 -37q-8 -6 -20 -6t-27 20l-156 217l-155 -217q-14 -20 -26 -20t-22 6l-51 37q-12 8 -12 21t10 28l160 217
l-254 80q-31 12 -31 31l2 10l19 59q6 20 26 21q6 0 19 -4l254 -84v268z" />
    <glyph glyph-name="plus" unicode="+" 
d="M1085 760q0 -33 -41 -33h-352v-350q0 -41 -33 -41h-81q-33 0 -33 41v350h-350q-41 0 -41 33v82q0 33 41 32h350v353q0 41 33 41h81q33 0 33 -41v-353h352q41 0 41 -32v-82z" />
    <glyph glyph-name="comma" unicode="," horiz-adv-x="438" 
d="M346 242q0 -4 -4 -17l-154 -387q-14 -39 -38 -39h-84q-25 0 -25 25q0 10 2 14l117 387q12 39 41 39h118q27 1 27 -22z" />
    <glyph glyph-name="hyphen" unicode="-" horiz-adv-x="681" 
d="M584 559q0 -35 -39 -35h-408q-39 0 -39 35v80q0 17 12 27t27 10h408q39 0 39 -37v-80z" />
    <glyph glyph-name="period" unicode="." horiz-adv-x="438" 
d="M307 43q0 -17 -11 -29t-28 -12h-98q-16 0 -28 12q-11 12 -11 29v190q0 15 11 27t28 12h98q16 0 28 -11t11 -28v-190z" />
    <glyph glyph-name="slash" unicode="/" horiz-adv-x="727" 
d="M682 1493q0 -8 -2 -12l-463 -1440q-12 -41 -37 -41h-104q-29 0 -29 29q0 8 2 12l465 1440q12 41 35 41h104q29 0 29 -29z" />
    <glyph glyph-name="zero" unicode="0" 
d="M936 623v276q0 479 -315 479t-316 -479v-276q0 -479 316 -480q315 1 315 480zM1122 623q0 -637 -502 -637t-503 637v276q0 637 503 637t502 -637v-276z" />
    <glyph glyph-name="one" unicode="1" 
d="M1024 0h-840q-41 0 -41 37v90q0 35 41 35h326v1167l-322 -135q-45 -16 -45 16v105q0 14 21 26l366 168q25 12 43 13h84q15 0 27 -12t12 -27v-1321h328q41 0 41 -35v-90q0 -37 -41 -37z" />
    <glyph glyph-name="two" unicode="2" 
d="M895 1180q0 200 -299 200q-155 0 -371 -30h-8q-33 0 -33 36v72q0 29 39 37q159 41 387 41q466 0 467 -367q0 -119 -60 -207t-206 -188l-197 -133q-168 -113 -227 -206t-59 -230v-43h690q41 0 41 -35v-90q0 -37 -41 -37h-813q-16 0 -29 11q-12 11 -12 28v166
q0 330 313 538l207 140q129 88 170 142q41 55 41 155z" />
    <glyph glyph-name="three" unicode="3" 
d="M1067 424q0 -221 -137 -330t-373 -108q-168 0 -346 41q-39 8 -39 39v69q0 35 35 35h6q215 -29 363 -29t225 68q76 68 76 215v43q-1 98 -57 174t-183 76h-373q-39 0 -39 37v71q0 39 39 39h373q133 0 186 72t54 172v29q0 127 -74 185t-246 58q-94 0 -344 -30h-6
q-35 0 -35 34v72q0 31 39 39q197 41 346 41q246 0 378 -92t132 -307v-29q0 -104 -50 -188t-145 -132q195 -96 195 -321v-43z" />
    <glyph glyph-name="four" unicode="4" 
d="M758 561v701q0 12 -8 12h-2q-8 0 -17 -12l-473 -672q-6 -8 -6 -18t16 -11h490zM1161 442q0 -37 -39 -36h-178v-365q0 -41 -35 -41h-118q-35 0 -35 41v365h-592q-47 0 -66 17q-18 17 -18 62v78q0 43 24 76l607 850q20 33 59 33h121q53 0 53 -45v-916h178q39 0 39 -37v-82z
" />
    <glyph glyph-name="five" unicode="5" 
d="M219 768q-31 0 -33 35v2l58 682q4 35 41 35h704q41 0 41 -35v-90q0 -33 -41 -33h-588l-32 -442h96q303 0 460 -98t156 -330v-31q0 -227 -137 -352q-136 -125 -364 -125t-381 37q-39 10 -39 40v76q0 31 30 31h11q164 -29 358 -29q334 0 334 322v31q0 152 -99 213t-329 61
h-246z" />
    <glyph glyph-name="six" unicode="6" 
d="M934 504v12q0 154 -89 218t-240 65q-151 0 -298 -37v-195q0 -240 77 -335q78 -95 232 -95t236 85t82 282zM1057 1382q0 -42 -49 -34q-168 32 -306 32t-202 -22q-66 -22 -103 -59q-90 -88 -90 -373v-23q186 41 309 41q222 0 362 -99t140 -329v-12q0 -248 -126 -383
t-368 -135t-372 144t-129 437v359q0 322 133 466t401 144q195 0 353 -35q47 -12 47 -39v-80z" />
    <glyph glyph-name="seven" unicode="7" 
d="M1092 1393q0 -49 -27 -107l-590 -1255q-16 -31 -45 -31h-123q-31 0 -31 31q0 10 7 22l618 1286q2 2 2 9q0 14 -14 14h-699q-41 0 -40 35v86q0 16 12 27t28 12h748q154 0 154 -129z" />
    <glyph glyph-name="eight" unicode="8" 
d="M942 424v39q0 102 -64 180q-65 78 -194 78h-127q-129 0 -193 -78t-65 -180v-39q0 -133 81 -208t230 -75h21q151 0 231 75t80 208zM944 1114v19q0 123 -81 187t-232 64h-21q-152 0 -232 -64t-81 -187v-19q0 -104 63 -175t197 -71h127q133 0 197 71q63 71 63 175zM1128 424
q0 -215 -140 -327t-357 -111h-21q-217 0 -357 112t-140 326v39q0 96 52 188t146 144q-94 49 -144 132t-50 187v19q0 203 135 303t358 100h21q223 0 358 -100t135 -303v-19q0 -104 -50 -187t-144 -132q94 -51 146 -143t52 -189v-39z" />
    <glyph glyph-name="nine" unicode="9" 
d="M606 1384q-156 0 -238 -84t-81 -282v-12q0 -154 89 -219q90 -65 240 -65t297 38l2 194q0 240 -76 335q-77 95 -233 95zM533 141q205 0 283 73t93 230q6 61 6 152v22q-190 -41 -309 -40q-225 0 -364 99t-140 329v12q0 248 127 383t369 135t372 -144t130 -438v-358
q0 -322 -133 -466t-402 -144q-195 0 -352 34q-49 12 -49 39v80q0 37 37 37q210 -35 332 -35z" />
    <glyph glyph-name="colon" unicode=":" horiz-adv-x="448" 
d="M313 39q0 -15 -12 -27t-29 -12h-96q-16 0 -29 11q-12 11 -12 28v192q0 15 12 27t29 12h96q16 0 28 -11t13 -28v-192zM313 895q0 -15 -12 -27t-29 -12h-96q-16 0 -29 11q-12 11 -12 28v190q0 17 12 29t29 12h96q16 0 28 -12t13 -29v-190z" />
    <glyph glyph-name="semicolon" unicode=";" horiz-adv-x="448" 
d="M322 240q0 -4 -5 -17l-153 -387q-8 -23 -16 -32t-23 -9h-82q-25 0 -25 27q0 10 2 14l117 387q12 39 41 39h117q27 1 27 -22zM313 895q0 -39 -39 -39h-100q-16 0 -28 11q-11 11 -11 28v190q0 17 11 29t28 12h100q16 0 28 -12t11 -29v-190z" />
    <glyph glyph-name="less" unicode="&#x3c;" 
d="M987 305q0 -18 -24 -18h-119q-31 0 -64 26l-493 418q-37 31 -37 70t37 69l493 418q33 27 64 27h119q25 0 24 -21q0 -16 -20 -34l-537 -459l537 -459q20 -19 20 -37z" />
    <glyph glyph-name="equal" unicode="=" 
d="M1055 535q0 -33 -41 -33h-789q-41 0 -41 33v81q0 33 41 33h789q41 0 41 -33v-81zM1055 987q0 -33 -41 -33h-789q-41 0 -41 33v82q0 33 41 33h789q41 0 41 -33v-82z" />
    <glyph glyph-name="greater" unicode="&#x3e;" 
d="M989 801q0 -39 -37 -70l-493 -418q-33 -27 -64 -26h-119q-25 0 -24 20q0 16 20 35l537 459l-537 459q-20 18 -20 36t24 19h119q31 0 64 -27l493 -418q37 -30 37 -69z" />
    <glyph glyph-name="question" unicode="?" horiz-adv-x="913" 
d="M406 39q0 -39 -39 -39h-99q-16 0 -28 11t-13 28v190q1 17 13 29t28 12h99q16 0 27 -12t12 -29v-190zM791 1202q0 -78 -38 -152t-149 -198l-92 -104q-46 -53 -64 -76q-43 -56 -45 -135v-101q0 -16 -12 -27t-29 -12h-90q-16 -1 -27 11t-12 28v101q0 98 28 159t108 150
l94 104q76 82 101 135q26 53 26 117v25q0 79 -50 113t-160 34t-276 -18h-6q-31 0 -30 35v71q0 41 34 47q137 27 279 27q410 0 410 -309v-25z" />
    <glyph glyph-name="at" unicode="@" horiz-adv-x="1570" 
d="M778 850q-147 0 -168 -182l-22 -234q-2 -12 -2 -35q0 -141 168 -141h43q59 0 88 4l51 576q-86 12 -158 12zM1028 -94q16 0 16 -12l3 -3v-65q0 -25 -33 -29q-141 -16 -285 -16q-293 1 -469 151t-176 398q0 43 2 63l31 320q27 285 223 457t508 173q311 1 477 -173t166 -420
q0 -360 -193 -508q-172 -131 -553 -131q-153 1 -241 75t-88 209q0 25 2 37l22 240q16 158 112 242t261 83q117 0 262 -30q43 -10 43 -43v-9l-61 -641q178 27 238 143q61 116 61 327t-131 346t-384 135q-253 1 -411 -141t-180 -379l-31 -312q-4 -45 -4 -65q0 -195 132 -316
t384 -121q123 0 295 15h2z" />
    <glyph glyph-name="A" unicode="A" horiz-adv-x="1296" 
d="M648 1374q-30 0 -40 -37l-186 -673h452l-186 673q-10 37 -40 37zM1237 33q0 -33 -35 -33h-121q-27 0 -34 31l-134 471h-530l-131 -471q-8 -31 -37 -31h-121q-35 0 -35 33q0 10 2 14l379 1333q43 156 208 156t208 -154l379 -1335q2 -4 2 -14z" />
    <glyph glyph-name="B" unicode="B" horiz-adv-x="1261" 
d="M973 420v35q0 260 -309 260h-316v-563l213 -9q207 -1 309 59t103 218zM965 1108v33q1 137 -103 187t-311 50q-31 0 -203 -6v-508h316q301 0 301 244zM1159 420q0 -434 -598 -434q-217 0 -334 18q-68 8 -67 76v1364q0 70 65 76q135 16 326 16q600 0 600 -395v-33
q0 -113 -57 -197t-162 -125q106 -37 167 -124q60 -88 60 -207v-35z" />
    <glyph glyph-name="C" unicode="C" horiz-adv-x="1116" 
d="M1044 53q0 -33 -40 -41q-138 -26 -290 -26t-242 30q-348 117 -349 602v285q0 489 349 603q89 30 209 30t327 -33q33 -4 32 -26v-105q0 -23 -24 -22h-6q-221 18 -344 18q-356 0 -357 -465v-285q1 -244 97 -354t248 -110t350 16h8q33 0 32 -33v-84z" />
    <glyph glyph-name="D" unicode="D" horiz-adv-x="1312" 
d="M1010 623v276q0 260 -116 369t-319 108q-125 0 -227 -6v-1220q66 -4 227 -5q435 1 435 478zM1196 623q0 -319 -164 -479t-457 -158q-254 0 -372 20q-43 6 -43 51v1407q0 45 43 52q119 20 393 20t437 -158t163 -479v-276z" />
    <glyph glyph-name="E" unicode="E" horiz-adv-x="1128" 
d="M1016 25q0 -25 -21 -29q-98 -10 -399 -10q-219 0 -328 90t-108 291v788q0 201 108 291q110 90 354 90t373 -12q20 -4 21 -29v-102q0 -25 -23 -25h-395q-156 0 -204 -45t-48 -168v-285h629q17 0 29 -12t12 -29v-77q0 -16 -12 -28t-29 -13h-629v-344q0 -123 48 -168
t204 -45h395q23 0 23 -25v-104z" />
    <glyph glyph-name="F" unicode="F" horiz-adv-x="1128" 
d="M1016 752q0 -16 -12 -28t-29 -13h-629v-670q0 -17 -12 -29t-29 -12h-104q-16 0 -29 12q-12 12 -12 29v1114q0 201 108 291q110 90 354 90t373 -12q20 -4 21 -29v-102q0 -25 -23 -25h-395q-156 0 -204 -45t-48 -168v-285h629q17 0 29 -12t12 -29v-77z" />
    <glyph glyph-name="G" unicode="G" horiz-adv-x="1253" 
d="M1094 61q0 -39 -37 -45q-188 -30 -402 -30t-366 141q-78 72 -124 200t-46 296v274q0 178 48 308q84 228 303 300q91 31 248 31t339 -29q35 -4 35 -30v-103q0 -20 -27 -20h-8q-170 14 -389 14q-362 0 -363 -471v-274q0 -240 95 -356t249 -115q111 0 258 12v586q0 41 37 41
h111q16 -1 27 -13t12 -28v-689z" />
    <glyph glyph-name="H" unicode="H" horiz-adv-x="1392" 
d="M1233 41q0 -17 -12 -29t-29 -12h-105q-16 0 -28 12t-12 29v680h-701v-680q0 -17 -12 -29t-29 -12h-104q-16 0 -29 12q-12 12 -12 29v1440q0 16 12 28t29 13h104q17 0 29 -12t12 -29v-594h701v594q0 16 12 28t28 13h105q16 0 28 -12t13 -29v-1440z" />
    <glyph glyph-name="I" unicode="I" horiz-adv-x="546" 
d="M367 41q-1 -17 -11 -29t-26 -12h-113q-14 0 -26 12q-11 12 -11 29v1442q0 39 37 39h113q16 0 26 -12t11 -27v-1442z" />
    <glyph glyph-name="J" unicode="J" horiz-adv-x="526" 
d="M367 -76q0 -150 -76 -222t-218 -71q-142 0 -145 39v76q0 35 41 35h80q78 0 105 32t26 111v1559q0 16 12 27t27 12h109q16 0 27 -12t12 -27v-1559z" />
    <glyph glyph-name="K" unicode="K" horiz-adv-x="1243" 
d="M1155 20q0 -20 -27 -20h-159q-27 0 -45 20l-578 703v-682q0 -17 -10 -29t-27 -12h-112q-14 0 -26 12q-11 12 -11 29v1442q0 16 11 27t28 12h108q15 0 27 -12t12 -27v-662l590 682q18 18 41 19h147q29 0 29 -23q0 -12 -8 -20l-617 -697l617 -737q10 -11 10 -25z" />
    <glyph glyph-name="L" unicode="L" horiz-adv-x="1052" 
d="M1016 33q0 -25 -21 -29q-119 -18 -296 -18t-233 7q-139 17 -224 103q-84 85 -82 271v1114q0 16 12 28t29 13h104q17 0 29 -12t12 -29v-1114q0 -123 48 -168t204 -45h395q23 0 23 -25v-96z" />
    <glyph glyph-name="M" unicode="M" horiz-adv-x="1558" 
d="M1401 41q0 -17 -12 -29t-29 -12h-100q-16 0 -29 12q-12 12 -12 29v1214q0 6 -2 7q-2 0 -5 -5l-292 -606q-16 -33 -36 -46t-57 -13h-94q-37 0 -56 13t-36 46l-293 606q-2 4 -4 5q-2 0 -2 -7v-1214q0 -17 -12 -29t-29 -12h-100q-16 0 -29 12q-12 12 -12 29v1421q0 25 17 42
t42 18h133q49 0 66 -35l338 -703q10 -22 24 -22t25 22l338 703q16 35 65 35h133q25 0 42 -18t18 -42v-1421z" />
    <glyph glyph-name="N" unicode="N" horiz-adv-x="1392" 
d="M1233 59q1 -25 -17 -42t-42 -17h-127q-49 0 -66 33l-633 1202q-4 6 -6 6t-2 -6v-1196q0 -15 -11 -27t-26 -12h-106q-37 0 -37 25v1439q0 25 17 41t42 17h113q41 0 56 -8t28 -33l628 -1196l5 -6q2 0 2 6v1198q0 16 11 27t25 12h109q37 0 37 -39v-1424z" />
    <glyph glyph-name="O" unicode="O" horiz-adv-x="1353" 
d="M1042 629v264q0 475 -366 475t-365 -475v-264q-1 -475 365 -475t366 475zM1231 629q0 -328 -150 -486q-149 -157 -403 -157t-405 158t-150 485v264q1 327 151 485t404 158t404 -158t149 -485v-264z" />
    <glyph glyph-name="P" unicode="P" horiz-adv-x="1214" 
d="M936 1065v27q0 154 -93 220t-294 66q-106 0 -205 -8v-600q188 -8 205 -8q209 0 298 70t89 233zM1122 1065q0 -459 -573 -459q-72 0 -205 10v-575q0 -17 -10 -29t-27 -12h-110q-14 0 -26 12q-11 12 -11 29v1427q0 45 49 52q141 16 340 16q573 0 573 -444v-27z" />
    <glyph glyph-name="Q" unicode="Q" horiz-adv-x="1353" 
d="M1042 629v264q0 475 -366 475t-365 -475v-264q-1 -475 365 -475t366 475zM1231 629q0 -297 -124 -455t-341 -184v-88q0 -76 24 -98t103 -21h121q45 0 45 -33v-69q0 -49 -163 -49t-237 56q-74 58 -73 212v92q-215 26 -339 184t-124 453v264q1 327 151 485t404 158
t404 -158t149 -485v-264z" />
    <glyph glyph-name="R" unicode="R" horiz-adv-x="1280" 
d="M958 1081v15q0 150 -95 211t-283 61t-236 -6v-561q180 -4 225 -4q199 0 294 62t95 222zM1200 27q0 -27 -26 -27h-132q-37 0 -53 27l-366 610h-54q-63 0 -225 6v-602q0 -17 -10 -29t-27 -12h-110q-14 0 -26 12q-11 12 -11 29v1434q0 39 49 45q141 16 360 16
q573 0 574 -440v-15q0 -166 -87 -270t-235 -143l373 -623q6 -8 6 -18z" />
    <glyph glyph-name="S" unicode="S" horiz-adv-x="1126" 
d="M139 51v82q0 33 35 33h6q140 -12 326 -12t255 62t68 179q0 76 -51 131t-194 144l-199 121q-147 90 -215 177t-68 206q0 362 490 362q201 0 356 -25q35 -6 35 -34v-88q0 -33 -35 -33h-4q-180 12 -347 12t-237 -42t-69 -152q0 -70 49 -121t174 -127l188 -113
q178 -103 250 -199t72 -236t-107 -267t-399 -125q-160 0 -262 16t-110 24q-7 8 -7 25z" />
    <glyph glyph-name="T" unicode="T" horiz-adv-x="1208" 
d="M1137 1395q0 -33 -39 -33h-400v-1321q0 -17 -10 -29t-26 -12h-113q-14 0 -26 12q-11 12 -11 29v1321h-399q-41 0 -41 33v90q0 14 12 25t29 12h985q39 0 39 -37v-90z" />
    <glyph glyph-name="U" unicode="U" horiz-adv-x="1355" 
d="M1202 553q0 -567 -524 -567t-524 567v930q0 16 11 27t28 12h110q15 0 27 -12t12 -27v-930q0 -207 76 -307t260 -100t260 98q76 100 76 309v930q0 16 11 27t28 12h110q15 0 27 -12t12 -27v-930z" />
    <glyph glyph-name="V" unicode="V" horiz-adv-x="1316" 
d="M1247 1487q0 -8 -2 -12l-377 -1334q-45 -155 -209 -155t-208 155l-379 1334q-2 4 -2 12q0 35 36 35h119q29 0 37 -31l356 -1305q12 -43 40 -43t40 43l359 1305q8 31 35 31h120q35 0 35 -35z" />
    <glyph glyph-name="W" unicode="W" horiz-adv-x="1689" 
d="M848 870h-4q-8 0 -13 -18l-202 -758q-12 -47 -43 -75t-74 -27h-86q-109 0 -127 104l-227 1385v6q0 35 34 35h119q29 0 35 -35l199 -1305q12 -61 24 0l201 758q20 82 96 82h131q76 0 97 -82l200 -758q6 -31 15 -30q4 0 10 30l199 1305q6 35 34 35h119q35 0 35 -35v-6
l-227 -1385q-18 -104 -127 -104h-88q-43 0 -74 28t-43 74l-201 758q-4 18 -12 18z" />
    <glyph glyph-name="X" unicode="X" horiz-adv-x="1323" 
d="M1237 29q0 -29 -33 -29h-129q-23 0 -43 31l-375 596l-366 -596q-20 -31 -43 -31h-121q-33 0 -33 31q0 10 6 20l455 723l-451 699q-6 8 -6 20q0 29 31 29h133q25 0 37 -21l369 -583l356 583q14 20 39 21h121q33 0 33 -31q0 -8 -7 -18l-440 -703l461 -719q6 -10 6 -22z" />
    <glyph glyph-name="Y" unicode="Y" horiz-adv-x="1193" 
d="M1124 1493q0 -10 -6 -23l-317 -712q-49 -106 -111 -135v-582q0 -17 -11 -29t-26 -12h-112q-14 0 -26 12q-11 12 -11 29v582q-59 23 -111 135l-315 712q-6 12 -6 23q0 29 34 29h125q25 0 37 -29l283 -664q23 -53 47 -53t47 53l285 664q12 29 35 29h125q34 0 34 -29z" />
    <glyph glyph-name="Z" unicode="Z" horiz-adv-x="1222" 
d="M1114 37q0 -13 -12 -25t-29 -12h-788q-98 0 -134 29t-36 107t30 122l734 1067q6 10 6 16q0 14 -21 15h-680q-41 0 -41 35v96q0 35 41 35h729q91 0 133 -28t42 -104t-33 -124l-731 -1067q-6 -10 -7 -19q0 -12 21 -12h735q41 0 41 -35v-96z" />
    <glyph glyph-name="bracketleft" unicode="[" horiz-adv-x="669" 
d="M621 -356q-1 -16 -13 -28t-28 -13h-381q-14 0 -25 11q-10 11 -10 28v1841q0 16 10 27t25 12h381q16 0 28 -12t13 -29v-68q-1 -17 -13 -29t-28 -12h-234v-1620h234q16 0 28 -12t13 -29v-67z" />
    <glyph glyph-name="backslash" unicode="\" horiz-adv-x="727" 
d="M682 29q0 -29 -29 -29h-104q-25 0 -37 41l-463 1440q-2 4 -2 12q0 29 29 29h104q23 0 35 -41l465 -1440q2 -4 2 -12z" />
    <glyph glyph-name="bracketright" unicode="]" horiz-adv-x="669" 
d="M506 -358q0 -16 -10 -28t-25 -11h-381q-16 0 -29 12q-12 12 -12 29v67q0 17 12 29t29 12h234v1620h-234q-16 0 -29 12q-12 12 -12 29v68q0 16 12 28t29 13h381q15 0 25 -12t10 -27v-1841z" />
    <glyph glyph-name="asciicircum" unicode="^" 
d="M1034 1171q0 -18 -22 -18h-123q-27 0 -58 37l-210 246l-211 -246q-31 -37 -58 -37h-123q-23 0 -22 18q0 12 8 23l236 305q29 37 61 37h217q33 0 62 -37l235 -305q8 -11 8 -23z" />
    <glyph glyph-name="underscore" unicode="_" horiz-adv-x="1011" 
d="M1075 -184q0 -33 -41 -33h-1054q-41 0 -41 33v51q0 33 41 33h1054q41 0 41 -33v-51z" />
    <glyph glyph-name="grave" unicode="`" horiz-adv-x="761" 
d="M498 1289q0 -13 -19 -13h-110q-20 0 -47 31l-232 258q-8 8 -8 16q0 14 22 14h136q27 0 51 -30l198 -254q9 -9 9 -22z" />
    <glyph glyph-name="a" unicode="a" horiz-adv-x="1062" 
d="M743 545h-151q-182 0 -248 -44t-65 -157v-25q0 -104 46 -145t156 -41t262 82v330zM924 41q0 -17 -12 -29t-29 -12h-95q-16 0 -28 12t-12 29v45q-172 -100 -318 -100t-239 76q-93 77 -93 255v25q0 170 114 251t380 81h151v82q0 129 -49 180q-48 51 -184 51t-299 -16h-10
q-37 0 -37 33v71q0 33 43 39q156 27 317 27q399 0 400 -385v-715z" />
    <glyph glyph-name="b" unicode="b" horiz-adv-x="1107" 
d="M825 492v147q0 172 -60 258t-214 86t-232 -14v-813q139 -12 240 -13q145 0 206 86q60 87 60 263zM1006 492q0 -238 -112 -372t-322 -134t-390 34q-27 4 -35 14t-8 34v1433q0 39 37 39h105q16 0 27 -11t11 -28v-381q111 20 240 21q221 0 334 -129t113 -373v-147z" />
    <glyph glyph-name="c" unicode="c" horiz-adv-x="925" 
d="M836 53q0 -37 -41 -45q-123 -23 -256 -22q-207 0 -322 134t-115 363v160q0 229 115 363t322 135q133 1 207 -13t82 -23t8 -32v-74q0 -31 -35 -30h-8q-127 14 -254 14q-256 0 -256 -340v-160q0 -340 256 -340q127 0 254 15h8q35 0 35 -31v-74z" />
    <glyph glyph-name="d" unicode="d" horiz-adv-x="1107" 
d="M556 983q-152 0 -212 -86t-61 -258v-147q0 -176 60 -262t206 -87q100 1 239 13v813q-80 14 -232 14zM932 1540q35 0 37 -39v-1433q0 -23 -8 -33t-35 -15q-180 -34 -390 -34t-322 134t-112 372v147q0 244 113 373t334 129q125 0 239 -21v381q0 15 12 27t27 12h105z" />
    <glyph glyph-name="e" unicode="e" horiz-adv-x="1114" 
d="M825 643v19q1 170 -65 246t-203 75q-274 0 -274 -321v-19h542zM1008 551q0 -45 -39 -45h-686v-29q-1 -178 69 -256t215 -78q217 0 365 23h10q33 0 33 -29v-69q0 -39 -41 -48q-180 -34 -320 -34t-220 24q-292 91 -292 467v185q0 223 119 351t337 128t334 -128t116 -351
v-111z" />
    <glyph glyph-name="f" unicode="f" horiz-adv-x="780" 
d="M729 1513v-67q0 -31 -37 -31h-98q-74 0 -100 -29t-25 -112v-148h215q16 0 28 -10t11 -26v-80q0 -35 -39 -35h-215v-934q0 -17 -12 -29t-27 -12h-100q-16 0 -29 12q-12 12 -12 29v934l-199 22q-39 4 -39 37v56q0 16 11 26t28 10h199v148q0 158 71 221q72 63 220 63
t149 -45z" />
    <glyph glyph-name="g" unicode="g" horiz-adv-x="1144" 
d="M868 -92v16q0 57 -53 90t-197 70l-231 59q-51 -43 -76 -89t-24 -120v-18q1 -92 67 -139t230 -47t224 43t60 135zM852 748v16q0 102 -61 160t-217 59q-156 0 -216 -59q-59 -59 -59 -160v-16q0 -209 276 -209q156 0 217 54q60 55 60 155zM1071 1028q0 -33 -37 -39l-73 -14
q70 -74 69 -211v-16q0 -350 -455 -351q-139 0 -237 41q-51 -26 -51 -72t63 -63l305 -78q239 -58 317 -128q77 -70 77 -173v-16q0 -317 -467 -318q-238 0 -355 85t-116 241v18q0 162 129 261l-15 6q-94 41 -94 159v2q0 100 84 148q-94 88 -94 238v16q0 158 105 260t349 102
h449q18 0 32 -13t15 -32v-53z" />
    <glyph glyph-name="h" unicode="h" horiz-adv-x="1140" 
d="M1001 41q0 -17 -12 -29t-28 -12h-99q-16 0 -28 12t-13 29v674q0 145 -56 207t-163 61q-156 0 -283 -57v-885q0 -17 -12 -29t-28 -12h-101q-16 0 -27 12t-12 29v1458q-1 17 11 29t28 12h103q16 0 27 -12t11 -29v-422q145 63 315 63t269 -104q98 -104 98 -321v-674z" />
    <glyph glyph-name="i" unicode="i" horiz-adv-x="505" 
d="M342 41q0 -17 -12 -29t-29 -12h-98q-16 0 -29 12q-12 12 -12 29v1044q0 17 12 29t29 12h98q17 0 29 -12t12 -29v-1044zM346 1348q0 -16 -12 -28t-29 -13h-104q-16 0 -29 12q-12 12 -12 29v163q0 17 12 29t29 12h104q17 0 29 -12t12 -29v-163z" />
    <glyph glyph-name="j" unicode="j" horiz-adv-x="505" 
d="M342 -131q0 -154 -62 -213t-194 -59q-56 0 -102 7t-45 34v75q0 29 43 29h84q57 0 76 25t20 102v1216q0 17 10 29t27 12h106q37 0 37 -41v-1216zM346 1346q0 -16 -12 -28t-29 -11h-104q-16 0 -29 11q-12 11 -12 28v165q0 17 12 29t29 12h104q17 0 29 -12t12 -29v-165z" />
    <glyph glyph-name="k" unicode="k" horiz-adv-x="1015" 
d="M944 27q0 -27 -22 -27h-148q-27 0 -47 27l-408 503v-489q0 -17 -12 -29t-28 -12h-99q-16 0 -28 12t-13 29v1458q1 17 13 29t28 12h99q16 0 28 -12t12 -29v-852l410 461q16 18 41 18h143q31 0 31 -22q0 -12 -10 -23l-451 -487l455 -549q6 -6 6 -18z" />
    <glyph glyph-name="l" unicode="l" horiz-adv-x="499" 
d="M340 41q0 -17 -10 -29t-27 -12h-106q-14 0 -26 12q-11 12 -11 29v1460q0 39 37 39h106q17 0 27 -11t10 -28v-1460z" />
    <glyph glyph-name="m" unicode="m" horiz-adv-x="1634" 
d="M1495 41q0 -17 -12 -29t-29 -12h-98q-16 0 -29 12q-12 12 -12 29v725q0 219 -187 219q-96 0 -239 -55q18 -68 18 -160v-729q0 -17 -10 -29t-27 -12h-108q-35 0 -35 41v729q0 127 -36 171t-124 44t-248 -80v-864q0 -17 -10 -29t-26 -12h-109q-35 0 -35 41v1044
q-1 17 11 29t28 12h103q16 0 27 -12t11 -29v-38q154 96 293 96t211 -84q178 84 340 84q332 0 332 -377v-725z" />
    <glyph glyph-name="n" unicode="n" horiz-adv-x="1140" 
d="M1001 41q0 -17 -12 -29t-28 -12h-99q-16 0 -28 12t-13 29v674q0 152 -52 211t-171 59t-279 -80v-864q0 -17 -12 -29t-28 -12h-101q-16 0 -27 12t-12 29v1044q-1 17 11 29t28 12h103q16 0 27 -12t11 -29v-38q168 94 326 94q356 0 356 -426v-674z" />
    <glyph glyph-name="o" unicode="o" horiz-adv-x="1116" 
d="M834 485v156q0 342 -276 342t-275 -342v-156q0 -342 274 -342q139 0 208 89t69 253zM1014 485q0 -231 -118 -365t-339 -134t-338 134t-117 365v156q0 231 117 365t338 135q221 0 339 -134t118 -366v-156z" />
    <glyph glyph-name="p" unicode="p" horiz-adv-x="1107" 
d="M825 487v148q0 172 -60 263q-59 91 -195 91t-251 -20v-811q113 -20 248 -20t197 87q61 88 61 262zM176 -401q-35 0 -37 39v1409q0 20 8 30t35 17q193 47 377 47q223 0 335 -134t112 -372v-148q0 -245 -113 -373t-334 -128q-115 0 -240 22v-370q0 -16 -11 -28t-27 -11
h-105z" />
    <glyph glyph-name="q" unicode="q" horiz-adv-x="1107" 
d="M540 989q-136 0 -196 -90t-61 -264v-148q0 -174 61 -262q61 -87 196 -87t248 20v811q-112 20 -248 20zM969 -362q0 -39 -37 -39h-105q-16 0 -27 11t-12 28v370q-123 -23 -239 -22q-221 0 -334 129t-113 372v148q0 238 112 372t335 134q184 0 377 -47q27 -6 35 -16t8 -31
v-1409z" />
    <glyph glyph-name="r" unicode="r" horiz-adv-x="700" 
d="M645 1020q0 -35 -43 -35q-139 0 -283 -86v-858q0 -17 -12 -29t-28 -12h-101q-16 0 -27 12t-12 29v1044q-1 17 11 29t28 12h96q16 0 28 -12t11 -29v-43q141 98 289 99q43 0 43 -37v-84z" />
    <glyph glyph-name="s" unicode="s" horiz-adv-x="954" 
d="M852 283q0 -299 -392 -297q-190 0 -315 30q-43 10 -43 41v72q0 31 37 31h8q180 -23 303 -23t173 33q49 33 49 113q0 45 -33 81t-121 89l-207 122q-209 127 -209 293q0 272 371 273q164 0 320 -27q39 -6 38 -41v-67q0 -35 -34 -35h-6q-190 16 -303 16q-113 1 -159 -23
t-46 -82q1 -58 33 -90q32 -34 108 -79l203 -121q125 -74 175 -146t50 -163z" />
    <glyph glyph-name="t" unicode="t" horiz-adv-x="788" 
d="M737 31q0 -29 -37 -35q-68 -10 -133 -10q-151 0 -215 56t-63 218v715l-199 22q-39 4 -39 37v56q0 37 39 36h199v201q0 35 37 41l106 16h6q31 0 31 -34v-224h221q16 0 28 -12t13 -29v-69q0 -16 -12 -28t-29 -13h-221v-715q0 -82 23 -106t88 -23h114q43 0 43 -29v-71z" />
    <glyph glyph-name="u" unicode="u" horiz-adv-x="1140" 
d="M1001 41q0 -17 -11 -29t-27 -12h-103q-16 0 -27 12t-12 29v39q-168 -94 -325 -94q-356 0 -357 426v673q1 17 13 29t28 12h99q16 0 28 -12t12 -29v-673q1 -152 53 -211t171 -59t278 79v864q1 17 13 29t28 12h101q16 0 27 -12t11 -29v-1044z" />
    <glyph glyph-name="v" unicode="v" horiz-adv-x="1085" 
d="M1006 1092q0 -8 -2 -15l-277 -975q-33 -116 -185 -116t-184 116l-276 975q-2 6 -2 15q0 35 33 34h112q27 0 39 -39l236 -892q14 -59 43 -60q29 0 43 60l235 892q12 39 39 39h113q33 1 33 -34z" />
    <glyph glyph-name="w" unicode="w" horiz-adv-x="1609" 
d="M1532 1085v-8l-199 -950q-20 -94 -49 -118q-29 -23 -117 -23q-89 0 -119 26t-55 121l-178 696q-4 14 -10 15q-6 0 -10 -15l-179 -696q-24 -90 -56 -119q-32 -28 -118 -28t-116 24q-29 24 -50 117l-198 950v8q0 17 11 29t28 12h110q31 0 35 -32l170 -934q4 -25 16 -25
t17 25l201 786q16 61 82 62h114q66 0 82 -62l201 -786q6 -25 17 -25t16 25l170 934q4 33 34 32h111q16 0 28 -12q11 -13 11 -29z" />
    <glyph glyph-name="x" unicode="x" horiz-adv-x="1120" 
d="M1047 23q0 -23 -27 -23h-141q-18 0 -29 16l-293 428l-293 -424q-14 -20 -35 -20h-123q-25 0 -24 20q0 14 10 27l369 526l-348 502q-10 16 -11 27q0 25 31 24h133q23 0 41 -28l260 -385l262 385q20 29 43 28h119q27 0 27 -24q0 -10 -10 -27l-344 -489l374 -539
q9 -10 9 -24z" />
    <glyph glyph-name="y" unicode="y" horiz-adv-x="1093" 
d="M1014 1092q0 -10 -2 -15l-338 -1179q-49 -172 -126 -238t-249 -66q-95 0 -155 14t-60 38v75q0 33 39 33h6q135 -12 203 -12t113 35q44 35 69 139l21 84h-29q-55 0 -91 28t-61 113l-272 936q-2 4 -2 15q0 35 37 34h112q27 0 35 -32l242 -889q10 -45 39 -45h33l249 936
q8 31 39 30h115q33 1 33 -34z" />
    <glyph glyph-name="z" unicode="z" horiz-adv-x="987" 
d="M885 41q-1 -17 -13 -29t-28 -12h-619q-61 0 -93 33t-32 80v39q0 72 47 133l529 657q8 12 8 19q0 14 -20 14h-498q-16 0 -29 12q-12 12 -12 29v69q0 17 12 29t29 12h602q115 0 115 -100v-49q0 -57 -47 -113l-539 -674q-10 -10 -10 -24t16 -14h541q16 0 28 -12t13 -29v-70z
" />
    <glyph glyph-name="braceleft" unicode="{" horiz-adv-x="677" 
d="M623 -356q-1 -16 -13 -28t-28 -13h-105q-186 0 -250 59q-63 59 -63 223v361q0 96 -26 151t-97 105v119q72 51 97 104q26 53 26 149v365q0 164 63 223t250 60h103q16 0 28 -12t13 -29v-68q-1 -17 -13 -29t-28 -12h-93q-89 0 -115 -26t-26 -107v-365q0 -112 -33 -186
t-112 -129q81 -55 113 -129t32 -184v-361q0 -81 26 -107t115 -26h95q16 0 28 -12t13 -29v-67z" />
    <glyph glyph-name="bar" unicode="|" horiz-adv-x="509" 
d="M346 -358q0 -16 -11 -28t-26 -11h-106q-14 0 -27 12q-12 12 -12 27v1841q0 16 12 27t27 12h106q13 0 25 -12t12 -27v-1841z" />
    <glyph glyph-name="braceright" unicode="}" horiz-adv-x="677" 
d="M514 246v-361q0 -164 -63 -223t-250 -59h-105q-16 0 -28 12t-13 29v67q1 17 13 29t28 12h94q90 0 116 26t26 107v361q0 110 33 184t112 129q-80 55 -112 129q-33 74 -33 186v365q0 82 -26 108t-116 25h-92q-16 0 -28 12t-13 29v68q1 16 13 28t28 13h103q185 0 249 -60
t64 -223v-365q0 -96 26 -149t97 -104v-119q-71 -48 -97 -104t-26 -152z" />
    <glyph glyph-name="asciitilde" unicode="~" 
d="M1053 956q1 -262 -205 -262q-100 0 -174 58l-150 118q-86 59 -108 64q-54 0 -70 -29t-16 -92v-53q0 -16 -12 -28t-29 -13h-60q-16 0 -28 12t-13 29v53q0 131 58 199t156 68q96 0 167 -58l174 -139q49 -41 95 -41t60 23q13 24 13 91v58q1 16 13 28t28 13h60q16 -1 28 -13
t13 -28v-58z" />
    <glyph glyph-name="uni00A0" unicode="&#xa0;" horiz-adv-x="505" 
 />
    <glyph glyph-name="exclamdown" unicode="&#xa1;" horiz-adv-x="444" 
d="M276 -416h-104q-16 0 -28 12t-11 27l14 1065q1 16 13 28t28 11h72q16 0 28 -12t13 -27l16 -1065q-1 -15 -13 -27t-28 -12zM313 895q0 -15 -11 -27t-28 -12h-98q-16 0 -28 11q-11 11 -11 28v192q0 39 39 39h98q16 0 28 -11t11 -28v-192z" />
    <glyph glyph-name="cent" unicode="&#xa2;" 
d="M987 53q0 -37 -41 -45q-92 -14 -192 -20v-185q0 -16 -12 -28t-29 -13h-84q-17 0 -29 12t-12 29v193q-160 33 -247 161t-87 326v160q0 199 87 327t247 160v191q0 17 12 29t29 12h84q16 0 28 -12t13 -29v-182q206 -12 225 -34q8 -9 8 -32v-74q0 -31 -35 -30h-8
q-143 16 -254 16q-256 0 -256 -342v-160q0 -342 256 -342q111 0 254 17h8q35 0 35 -31v-74z" />
    <glyph glyph-name="sterling" unicode="&#xa3;" 
d="M1096 35q0 -35 -41 -35h-817q-35 0 -35 31v80q0 12 20 47q63 109 64 241v312h-107q-37 0 -37 37v86q1 14 13 25t28 11h103v134q0 266 100 391t352 125q159 0 251 -16t99 -22q7 -7 7 -24v-84q0 -35 -31 -35h-10q-199 23 -337 23t-191 -75q-54 -75 -54 -283v-134h440
q15 0 27 -10t12 -26v-86q0 -14 -12 -26t-29 -11h-438v-312q0 -113 -72 -243h654q41 0 41 -31v-90z" />
    <glyph glyph-name="currency" unicode="&#xa4;" 
d="M862 764q0 100 -71 172q-73 72 -175 72t-174 -72t-72 -172t74 -173q72 -73 172 -73t174 73q72 73 72 173zM1122 1174q0 -14 -14 -29l-168 -168q68 -96 68 -215t-70 -215l168 -168q14 -13 14 -29t-10 -26l-55 -56q-11 -10 -25 -10t-29 14l-172 172q-95 -68 -211 -68
t-210 68l-168 -168q-16 -16 -30 -16t-24 10l-55 58q-10 14 -10 26t14 27l166 166q-70 94 -70 215t66 213l-166 166q-14 14 -14 30t10 25l57 55q24 24 54 -6l163 -164q96 70 216 70t219 -70l168 168q28 28 53 4l55 -55q10 -10 10 -24z" />
    <glyph glyph-name="yen" unicode="&#xa5;" 
d="M1165 473q0 -17 -12 -29t-29 -12h-409v-391q0 -17 -10 -29t-27 -12h-117q-35 0 -35 41v391h-411q-16 0 -29 12q-12 12 -12 29v62q0 16 12 28t29 12h411v43l-112 226h-299q-16 0 -29 12q-12 12 -12 29v61q0 16 12 28t29 13h227l-244 483q-6 16 -6 25q0 27 33 27h129
q23 0 35 -29l332 -694l331 694q12 29 35 29h127q35 0 35 -29q0 -10 -6 -23l-244 -483h225q16 0 28 -12t13 -29v-61q0 -17 -12 -29t-29 -12h-297l-112 -226v-43h409q16 0 28 -12t13 -28v-62z" />
    <glyph glyph-name="brokenbar" unicode="&#xa6;" horiz-adv-x="509" 
d="M346 -391q0 -17 -11 -29t-26 -12h-108q-14 0 -26 12q-11 12 -11 29v710q0 15 11 27t26 12h108q13 0 25 -11t12 -28v-710zM346 741q0 -16 -11 -28t-26 -13h-108q-13 0 -25 12t-12 29v711q0 16 11 28t26 11h108q13 0 25 -11t12 -28v-711z" />
    <glyph glyph-name="section" unicode="&#xa7;" horiz-adv-x="1120" 
d="M834 410q0 64 -42 115q-42 50 -167 128l-185 113q-129 82 -147 96q-18 -55 -19 -108q0 -127 183 -234l225 -131q63 -37 137 -88q15 45 15 109zM1022 -18q0 -102 -24 -168q-92 -258 -482 -256q-164 0 -344 28q-39 8 -39 39v86q0 35 41 35h4q221 -20 332 -20h6
q172 0 240 61t67 178q0 82 -44 134t-177 132l-229 138q-160 96 -217 180q-58 85 -58 197t70 223q-70 74 -70 207q0 176 115 268t347 92t386 -27q37 -8 37 -39v-88q0 -35 -37 -34h-2q-45 2 -167 10t-189 8q-172 0 -234 -44t-61 -130q0 -86 42 -135t165 -121l223 -131
q174 -101 236 -193q63 -92 63 -221t-59 -219q59 -88 59 -190z" />
    <glyph glyph-name="dieresis" unicode="&#xa8;" horiz-adv-x="763" 
d="M285 1352q-1 -16 -13 -28t-28 -11h-80q-16 0 -29 11q-12 11 -12 28v166q0 14 12 27t29 14h80q14 1 27 -13t14 -28v-166zM643 1352q0 -16 -12 -28t-29 -11h-80q-16 0 -28 11t-13 28v166q-1 14 13 27t28 14h80q16 1 28 -13t13 -28v-166z" />
    <glyph glyph-name="copyright" unicode="&#xa9;" horiz-adv-x="1536" 
d="M975 375q0 -27 -31 -31q-72 -14 -200 -14t-214 90t-86 285v135q0 196 86 286t209 90t205 -16q31 -4 31 -29v-57q0 -25 -27 -24h-6q-106 10 -184 10q-186 0 -187 -260v-135q0 -258 187 -259q78 0 184 11h4q29 0 29 -27v-55zM1343 766q0 240 -168 410q-169 170 -409 170
t-408 -170t-168 -410t168 -407t408 -167t409 167q168 167 168 407zM1434 766q0 -274 -197 -469t-471 -195t-469 195t-195 470t195 472t469 197t471 -198t197 -472z" />
    <glyph glyph-name="ordfeminine" unicode="&#xaa;" horiz-adv-x="602" 
d="M420 1180h-66q-98 -4 -136 -26t-38 -77v-14q0 -55 30 -80q51 -43 210 -14v211zM541 922q0 -29 -21 -33q-92 -27 -215 -27t-183 48t-61 153v14q0 97 71 143t220 46h66v26q0 72 -25 101t-82 29t-176 -11h-4q-29 0 -29 27v43q0 25 31 28q102 18 174 19q233 0 234 -236v-370z
" />
    <glyph glyph-name="guillemotleft" unicode="&#xab;" horiz-adv-x="1257" 
d="M614 160q0 -16 -22 -17h-119q-23 0 -43 21l-346 346q-23 24 -23 58t23 57l346 346q20 20 43 20h119q23 0 22 -18q0 -14 -12 -27l-364 -379l364 -379q12 -12 12 -28zM1147 160q0 -16 -23 -17h-118q-23 0 -43 21l-347 346q-22 24 -22 58t22 57l347 346q20 20 43 20h118
q23 0 23 -16t-12 -29l-365 -379l365 -379q12 -12 12 -28z" />
    <glyph glyph-name="logicalnot" unicode="&#xac;" 
d="M1055 506q-1 -16 -13 -28t-28 -13h-66q-16 0 -28 12t-13 29v448h-682q-41 0 -41 33v82q0 33 41 33h795q35 0 35 -35v-561z" />
    <glyph glyph-name="uni00AD" unicode="&#xad;" horiz-adv-x="681" 
d="M584 559q0 -35 -39 -35h-408q-39 0 -39 35v80q0 17 12 27t27 10h408q39 0 39 -37v-80z" />
    <glyph glyph-name="registered" unicode="&#xae;" horiz-adv-x="1224" 
d="M743 1137v8q0 61 -36 86q-37 25 -123 24h-95v-229l95 -2q86 0 123 26q36 26 36 87zM870 678q0 -27 -24 -27h-58q-16 0 -24 17l-166 262l-25 6h-81v-254q0 -12 -8 -22t-21 -9h-51q-27 0 -27 31v618q0 43 37 46q47 6 168 6q120 0 188 -47t68 -160v-8q0 -145 -137 -185
l157 -256q4 -8 4 -18zM1081 991q0 193 -137 331t-331 138q-193 0 -329 -137t-136 -331t134 -330q136 -136 330 -136t332 136q137 136 137 329zM1165 991q1 -229 -161 -389t-392 -160t-390 160q-161 160 -161 389t161 390t390 161t391 -161t162 -390z" />
    <glyph glyph-name="macron" unicode="&#xaf;" horiz-adv-x="763" 
d="M719 1417q0 -35 -41 -35h-590q-41 0 -41 35v70q0 35 41 35h590q41 0 41 -35v-70z" />
    <glyph glyph-name="degree" unicode="&#xb0;" horiz-adv-x="700" 
d="M532 1245q0 74 -53 127t-127 53t-127 -53t-53 -127t53 -127t127 -53t127 53t53 127zM643 1245q0 -119 -86 -205t-206 -86t-206 86t-86 205t86 205t206 86t206 -86t86 -205z" />
    <glyph glyph-name="plusminus" unicode="&#xb1;" 
d="M1085 33q0 -33 -41 -33h-849q-41 0 -41 33v67q0 33 41 33h849q41 0 41 -33v-67zM1085 760q0 -33 -41 -33h-352v-350q0 -41 -33 -41h-81q-33 0 -33 41v350h-350q-41 0 -41 33v82q0 33 41 32h350v353q0 41 33 41h81q33 0 33 -41v-353h352q41 0 41 -32v-82z" />
    <glyph glyph-name="two.superior" unicode="&#xb2;" horiz-adv-x="681" 
d="M602 1315q0 -68 -35 -119t-112 -109q-185 -118 -220 -170q-35 -53 -34 -120v-9h354q37 0 37 -34v-47q0 -17 -11 -27t-26 -10h-438q-14 0 -26 10q-11 10 -11 27v90q0 186 176 303l113 74h-2q68 50 87 74t19 67q0 98 -149 98q-78 0 -199 -18q-33 0 -33 37v38q0 27 31 37
q82 20 201 21q278 0 278 -213z" />
    <glyph glyph-name="three.superior" unicode="&#xb3;" horiz-adv-x="681" 
d="M463 1296q-1 117 -135 117q-62 0 -185 -16l-24 -2q-35 0 -35 37v36q0 27 31 39q102 20 192 21q291 0 291 -232v-14q0 -115 -88 -172q88 -55 88 -174v-23q0 -129 -78 -190t-213 -61q-78 0 -190 22q-33 8 -33 37v37q0 37 39 37q109 -17 187 -17t116 32q37 32 37 103v23
q0 47 -27 84t-86 37h-200q-35 0 -35 33v40q0 35 35 35h200q113 0 113 117v14z" />
    <glyph glyph-name="acute" unicode="&#xb4;" horiz-adv-x="763" 
d="M682 1581q0 -8 -8 -16l-232 -258q-29 -31 -47 -31h-110q-18 0 -19 14q0 12 8 21l201 254q25 31 49 30h135q23 0 23 -14z" />
    <glyph glyph-name="mu" unicode="&#xb5;" horiz-adv-x="1140" 
d="M1001 90q0 -35 -38 -47q-157 -57 -349 -57t-295 59v-405q0 -16 -12 -28t-28 -13h-99q-16 0 -28 12t-13 29v1445q-1 17 11 29t28 12h103q16 0 27 -12t11 -29v-673q-1 -143 63 -208t202 -65t237 29v917q1 17 13 29t28 12h101q16 0 27 -12t11 -29v-995z" />
    <glyph glyph-name="paragraph" unicode="&#xb6;" horiz-adv-x="1273" 
d="M1141 -360q-1 -16 -11 -28t-24 -11h-47q-14 0 -25 11q-10 11 -10 28v1771h-119v-1771q0 -16 -10 -28t-25 -11h-47q-14 0 -24 11t-11 28v899h-213q-217 -1 -350 119t-133 337v70q0 217 133 337t350 120h533q33 0 33 -39v-1843z" />
    <glyph glyph-name="periodcentered" unicode="&#xb7;" horiz-adv-x="438" 
d="M307 707q0 -17 -11 -29t-28 -12h-98q-16 0 -28 12q-11 12 -11 29v190q0 15 11 27t28 12h98q16 0 28 -11t11 -28v-190z" />
    <glyph glyph-name="cedilla" unicode="&#xb8;" horiz-adv-x="749" 
d="M520 -80q0 -8 -8 -16l-231 -258q-27 -31 -48 -31h-110q-18 0 -19 14q0 12 9 21l198 254q25 31 51 30h136q22 0 22 -14z" />
    <glyph glyph-name="one.superior" unicode="&#xb9;" horiz-adv-x="681" 
d="M111 1405q0 20 20 27l164 77q25 12 65 13h13q23 0 29 -10t6 -29v-774q0 -15 -10 -27t-25 -12h-62q-14 0 -24 11t-11 28v667l-131 -55q-35 -12 -34 27v57z" />
    <glyph glyph-name="ordmasculine" unicode="&#xba;" horiz-adv-x="659" 
d="M471 1159v72q0 96 -33 142t-106 46q-143 0 -144 -188v-72q0 -190 144 -190q139 0 139 190zM596 1159q0 -143 -68 -220t-196 -77t-198 77q-69 77 -68 220v72q0 143 68 220q69 77 198 77q128 0 196 -77t68 -220v-72z" />
    <glyph glyph-name="guillemotright" unicode="&#xbb;" horiz-adv-x="1257" 
d="M664 567q0 -35 -23 -57l-346 -346q-20 -20 -43 -21h-119q-23 0 -22 19q0 14 12 26l364 379l-364 379q-12 12 -12 28t22 17h119q23 0 43 -20l346 -346q23 -23 23 -58zM1196 567q0 -35 -22 -57l-347 -346q-20 -20 -43 -21h-118q-23 1 -23 17t12 28l365 379l-365 379
q-12 12 -12 28t23 17h118q23 0 43 -20l347 -346q22 -23 22 -58z" />
    <glyph glyph-name="onequarter" unicode="&#xbc;" horiz-adv-x="1517" 
d="M1186 334v332l-232 -332h232zM1436 254q0 -35 -39 -35h-78v-180q0 -15 -10 -27t-27 -12h-63q-35 0 -35 39v180h-301q-35 0 -49 12t-15 45v41q0 31 17 54l331 458q12 23 41 23h64q47 0 47 -41v-477h78q16 0 27 -10t12 -25v-45zM82 1348v57q0 20 20 27l164 77q25 12 66 13
h12q23 0 29 -10t6 -29v-774q0 -15 -10 -27t-25 -12h-61q-14 0 -25 11q-10 11 -10 28v667l-131 -55q-35 -12 -35 27zM1188 1512q0 -9 -10 -29l-856 -1450q-23 -41 -46 -41h-100q-20 0 -20 15t8 26l856 1450q23 39 47 39h104q17 -1 17 -10z" />
    <glyph glyph-name="onehalf" unicode="&#xbd;" horiz-adv-x="1523" 
d="M1442 645q0 -68 -35 -119t-113 -108q-182 -116 -218 -169q-36 -54 -36 -122v-8h355q37 0 37 -35v-47q0 -17 -12 -27t-25 -10h-439q-14 0 -25 10t-11 27v90q0 186 176 303l112 74h-2q68 49 87 74t20 67q0 98 -150 98q-78 0 -198 -18q-33 0 -33 37v39q0 27 31 37
q82 20 200 20q279 0 279 -213zM82 1348v57q0 20 20 27l164 77q25 12 66 13h12q23 0 29 -10t6 -29v-774q0 -15 -10 -27t-25 -12h-61q-14 0 -25 11q-10 11 -10 28v667l-131 -55q-35 -12 -35 27zM1188 1512q0 -9 -10 -29l-856 -1450q-23 -41 -46 -41h-100q-20 0 -20 15t8 26
l856 1450q23 39 47 39h104q17 -1 17 -10z" />
    <glyph glyph-name="threequarters" unicode="&#xbe;" horiz-adv-x="1691" 
d="M461 1296q-1 117 -135 117q-62 0 -185 -16l-24 -2q-35 0 -35 37v36q0 27 31 39q102 20 192 21q291 0 291 -232v-14q0 -115 -88 -172q88 -55 88 -174v-23q0 -129 -78 -190t-213 -61q-78 0 -190 22q-33 8 -33 37v37q0 37 39 37q109 -17 187 -17t116 32q37 32 37 103v23
q0 47 -27 84t-86 37h-201q-35 0 -34 33v40q0 35 34 35h201q113 0 113 117v14zM1360 334v332l-232 -332h232zM1610 254q0 -35 -39 -35h-78v-180q0 -15 -10 -27t-27 -12h-63q-35 0 -35 39v180h-301q-35 0 -49 12t-15 45v41q0 31 17 54l331 458q10 23 41 23h64q47 0 47 -41
v-477h78q16 0 27 -10t12 -25v-45zM1360 1512q0 -9 -10 -29l-856 -1450q-23 -41 -45 -41h-101q-20 0 -20 15t8 26l856 1450q23 39 47 39h104q17 -1 17 -10z" />
    <glyph glyph-name="questiondown" unicode="&#xbf;" horiz-adv-x="913" 
d="M831 -338q0 -41 -34 -47q-137 -27 -279 -27q-410 0 -409 310v24q0 78 37 152q38 74 149 198l92 105q47 53 65 76q42 57 44 135v100q0 16 12 28t29 11h90q16 0 27 -11t12 -28v-100q0 -98 -28 -160t-108 -149l-94 -105q-76 -82 -102 -135t-25 -117v-24q0 -80 50 -114
t160 -34t276 19h6q31 0 30 -35v-72zM672 897q0 -17 -12 -29t-29 -12h-99q-16 0 -27 12t-11 29v190q0 39 38 39h99q16 0 28 -11t13 -28v-190z" />
    <glyph glyph-name="Agrave" unicode="&#xc0;" horiz-adv-x="1296" 
d="M788 1639q0 -13 -18 -13h-111q-20 0 -47 31l-231 258q-8 8 -8 16q0 14 22 15h135q27 0 52 -31l198 -254q8 -9 8 -22zM648 1374q-30 0 -40 -37l-186 -673h452l-186 673q-10 37 -40 37zM1237 33q0 -33 -35 -33h-121q-27 0 -34 31l-134 471h-530l-131 -471q-8 -31 -37 -31
h-121q-35 0 -35 33q0 10 2 14l379 1333q43 156 208 156t208 -154l379 -1335q2 -4 2 -14z" />
    <glyph glyph-name="Aacute" unicode="&#xc1;" horiz-adv-x="1296" 
d="M961 1931q0 -8 -9 -16l-231 -258q-29 -31 -47 -31h-111q-18 0 -18 13t8 22l201 254q25 31 49 31h135q23 -1 23 -15zM648 1374q-30 0 -40 -37l-186 -673h452l-186 673q-10 37 -40 37zM1237 33q0 -33 -35 -33h-121q-27 0 -34 31l-134 471h-530l-131 -471q-8 -31 -37 -31
h-121q-35 0 -35 33q0 10 2 14l379 1333q43 156 208 156t208 -154l379 -1335q2 -4 2 -14z" />
    <glyph glyph-name="Acircumflex" unicode="&#xc2;" horiz-adv-x="1296" 
d="M999 1639q0 -13 -18 -13h-107q-18 0 -47 31l-168 198l-170 -198q-29 -31 -47 -31h-106q-18 0 -19 14q0 12 9 21l196 254q25 31 49 31h174q27 0 52 -31l194 -254q8 -9 8 -22zM648 1374q-30 0 -40 -37l-186 -673h452l-186 673q-10 37 -40 37zM1237 33q0 -33 -35 -33h-121
q-27 0 -34 31l-134 471h-530l-131 -471q-8 -31 -37 -31h-121q-35 0 -35 33q0 10 2 14l379 1333q43 156 208 156t208 -154l379 -1335q2 -4 2 -14z" />
    <glyph glyph-name="Atilde" unicode="&#xc3;" horiz-adv-x="1296" 
d="M1018 1831q0 -215 -180 -215q-88 0 -144 43l-125 100q-57 45 -84 45q-63 0 -63 -94v-43q0 -15 -10 -25t-25 -10h-63q-14 0 -24 10q-9 10 -9 25v43q0 109 51 166q50 57 126 57t140 -49l146 -115q36 -29 70 -29t48 20q14 19 15 71v47q0 14 10 24t25 11h63q13 0 23 -10
t10 -25v-47zM648 1374q-30 0 -40 -37l-186 -673h452l-186 673q-10 37 -40 37zM1237 33q0 -33 -35 -33h-121q-27 0 -34 31l-134 471h-530l-131 -471q-8 -31 -37 -31h-121q-35 0 -35 33q0 10 2 14l379 1333q43 156 208 156t208 -154l379 -1335q2 -4 2 -14z" />
    <glyph glyph-name="Adieresis" unicode="&#xc4;" horiz-adv-x="1296" 
d="M563 1694q0 -16 -12 -28t-29 -11h-80q-16 0 -28 11t-13 28v166q1 16 13 28t28 13h80q14 -1 28 -13t13 -28v-166zM922 1694q0 -16 -12 -28t-29 -11h-80q-16 0 -29 11q-12 11 -12 28v166q0 16 13 28t28 13h80q16 -1 28 -13t13 -28v-166zM648 1374q-30 0 -40 -37l-186 -673
h452l-186 673q-10 37 -40 37zM1237 33q0 -33 -35 -33h-121q-27 0 -34 31l-134 471h-530l-131 -471q-8 -31 -37 -31h-121q-35 0 -35 33q0 10 2 14l379 1333q43 156 208 156t208 -154l379 -1335q2 -4 2 -14z" />
    <glyph glyph-name="Aring" unicode="&#xc5;" horiz-adv-x="1296" 
d="M756 1800q0 45 -32 76t-77 31t-76 -31t-31 -76t32 -77q30 -31 75 -31t77 32t32 76zM854 1798q0 -86 -60 -146t-146 -60t-148 60q-61 60 -62 146q0 86 62 148t147 61q86 0 147 -61q60 -62 60 -148zM648 1374q-30 0 -40 -37l-186 -673h452l-186 673q-10 37 -40 37zM1237 33
q0 -33 -35 -33h-121q-27 0 -34 31l-134 471h-530l-131 -471q-8 -31 -37 -31h-121q-35 0 -35 33q0 10 2 14l379 1333q43 156 208 156t208 -154l379 -1335q2 -4 2 -14z" />
    <glyph glyph-name="AE" unicode="&#xc6;" horiz-adv-x="1759" 
d="M852 664v696h-223q-31 0 -41 -35l-187 -661h451zM1647 29q0 -25 -21 -29q-133 -14 -345 -14q-213 0 -321 90t-108 291v135h-490l-131 -471q-8 -31 -36 -31h-121q-35 0 -35 33q0 10 2 14l379 1321q45 154 209 154h997q20 0 21 -29v-109q0 -25 -23 -24h-586v-490h568
q16 0 28 -12t13 -29v-77q-1 -16 -13 -28t-28 -13h-568v-344q0 -123 48 -168t204 -45h334q23 0 23 -25v-100z" />
    <glyph glyph-name="Ccedilla" unicode="&#xc7;" horiz-adv-x="1116" 
d="M780 -80q0 -8 -8 -16l-231 -258q-27 -31 -47 -31h-111q-18 0 -18 11t8 24l198 254q25 31 52 30h135q22 0 22 -14zM1044 53q0 -33 -40 -41q-138 -26 -290 -26t-242 30q-348 117 -349 602v285q0 489 349 603q89 30 209 30t327 -33q33 -4 32 -26v-105q0 -23 -24 -22h-6
q-221 18 -344 18q-356 0 -357 -465v-285q1 -244 97 -354t248 -110t350 16h8q33 0 32 -33v-84z" />
    <glyph glyph-name="Egrave" unicode="&#xc8;" horiz-adv-x="1128" 
d="M737 1637q0 -13 -18 -13h-111q-18 0 -47 31l-231 258q-8 8 -8 16q0 14 22 15h135q27 0 51 -31l199 -254q8 -9 8 -22zM1016 25q0 -25 -21 -29q-98 -10 -399 -10q-219 0 -328 90t-108 291v788q0 201 108 291q110 90 354 90t373 -12q20 -4 21 -29v-102q0 -25 -23 -25h-395
q-156 0 -204 -45t-48 -168v-285h629q17 0 29 -12t12 -29v-77q0 -16 -12 -28t-29 -13h-629v-344q0 -123 48 -168t204 -45h395q23 0 23 -25v-104z" />
    <glyph glyph-name="Eacute" unicode="&#xc9;" horiz-adv-x="1128" 
d="M893 1931q0 -8 -8 -16l-232 -258q-27 -31 -47 -31h-110q-18 0 -19 14q0 12 8 21l201 254q25 31 49 31h135q23 -1 23 -15zM1016 25q0 -25 -21 -29q-98 -10 -399 -10q-219 0 -328 90t-108 291v788q0 201 108 291q110 90 354 90t373 -12q20 -4 21 -29v-102q0 -25 -23 -25
h-395q-156 0 -204 -45t-48 -168v-285h629q17 0 29 -12t12 -29v-77q0 -16 -12 -28t-29 -13h-629v-344q0 -123 48 -168t204 -45h395q23 0 23 -25v-104z" />
    <glyph glyph-name="Ecircumflex" unicode="&#xca;" horiz-adv-x="1128" 
d="M934 1639q0 -13 -19 -13h-106q-18 0 -47 31l-168 198l-170 -198q-27 -31 -47 -31h-107q-18 0 -18 13t8 22l197 254q25 31 49 31h174q27 0 51 -31l195 -254q8 -9 8 -22zM1016 25q0 -25 -21 -29q-98 -10 -399 -10q-219 0 -328 90t-108 291v788q0 201 108 291q110 90 354 90
t373 -12q20 -4 21 -29v-102q0 -25 -23 -25h-395q-156 0 -204 -45t-48 -168v-285h629q17 0 29 -12t12 -29v-77q0 -16 -12 -28t-29 -13h-629v-344q0 -123 48 -168t204 -45h395q23 0 23 -25v-104z" />
    <glyph glyph-name="Edieresis" unicode="&#xcb;" horiz-adv-x="1128" 
d="M510 1698q0 -16 -12 -28t-29 -11h-80q-16 0 -29 11q-12 11 -12 28v166q0 16 12 28t29 13h80q13 -1 27 -13t14 -28v-166zM868 1698q0 -16 -12 -28t-29 -11h-79q-16 0 -29 11q-12 11 -12 28v166q0 16 13 28t28 13h79q17 -1 29 -13t12 -28v-166zM1016 25q0 -25 -21 -29
q-98 -10 -399 -10q-219 0 -328 90t-108 291v788q0 201 108 291q110 90 354 90t373 -12q20 -4 21 -29v-102q0 -25 -23 -25h-395q-156 0 -204 -45t-48 -168v-285h629q17 0 29 -12t12 -29v-77q0 -16 -12 -28t-29 -13h-629v-344q0 -123 48 -168t204 -45h395q23 0 23 -25v-104z
" />
    <glyph glyph-name="Igrave" unicode="&#xcc;" horiz-adv-x="546" 
d="M406 1639q0 -13 -19 -13h-111q-18 0 -47 31l-231 258q-8 8 -8 16q0 14 22 15h135q27 0 52 -31l198 -254q9 -9 9 -22zM367 41q-1 -17 -11 -29t-26 -12h-113q-14 0 -26 12q-11 12 -11 29v1442q0 39 37 39h113q16 0 26 -12t11 -27v-1442z" />
    <glyph glyph-name="Iacute" unicode="&#xcd;" horiz-adv-x="546" 
d="M557 1931q0 -8 -8 -16l-232 -258q-29 -31 -47 -31h-110q-18 0 -19 14q0 12 9 21l200 254q25 31 49 31h136q22 -1 22 -15zM367 41q-1 -17 -11 -29t-26 -12h-113q-14 0 -26 12q-11 12 -11 29v1442q0 39 37 39h113q16 0 26 -12t11 -27v-1442z" />
    <glyph glyph-name="Icircumflex" unicode="&#xce;" horiz-adv-x="546" 
d="M606 1639q0 -13 -18 -13h-107q-18 0 -47 31l-168 198l-170 -198q-29 -31 -47 -31h-106q-18 0 -19 14q0 12 8 21l197 254q25 31 49 31h174q27 0 51 -31l195 -254q8 -9 8 -22zM367 41q-1 -17 -11 -29t-26 -12h-113q-14 0 -26 12q-11 12 -11 29v1442q0 39 37 39h113
q16 0 26 -12t11 -27v-1442z" />
    <glyph glyph-name="Idieresis" unicode="&#xcf;" horiz-adv-x="546" 
d="M176 1696q0 -16 -12 -28t-29 -11h-80q-16 0 -28 11t-13 28v166q0 14 14 27t27 14h80q17 1 29 -13t12 -28v-166zM535 1696q-1 -16 -13 -28t-28 -11h-80q-16 0 -29 11q-12 11 -12 28v166q0 14 12 27t29 14h80q14 1 27 -13t14 -28v-166zM367 41q-1 -17 -11 -29t-26 -12h-113
q-14 0 -26 12q-11 12 -11 29v1442q0 39 37 39h113q16 0 26 -12t11 -27v-1442z" />
    <glyph glyph-name="Eth" unicode="&#xd0;" horiz-adv-x="1312" 
d="M1010 623v276q0 260 -116 369t-319 108q-125 0 -227 -6v-500h211q17 0 29 -12t12 -29v-77q0 -16 -12 -28t-29 -13h-211v-561q66 -4 227 -5q435 1 435 478zM1196 623q0 -319 -164 -479t-457 -158q-254 0 -372 20q-43 6 -43 51v654h-78q-16 0 -29 12q-12 12 -12 29v77
q0 17 12 29t29 12h78v594q0 45 43 52q119 20 393 20t437 -158t163 -479v-276z" />
    <glyph glyph-name="Ntilde" unicode="&#xd1;" horiz-adv-x="1392" 
d="M1040 1827q0 -215 -180 -215q-88 0 -143 43l-125 100q-57 45 -84 45q-63 0 -64 -94v-43q0 -15 -10 -25t-24 -10h-64q-31 0 -33 35v43q-1 109 51 166t128 57t139 -49l145 -115q37 -29 71 -29t48 20q14 19 14 71v47q1 14 11 24t24 11h64q14 -1 23 -11t9 -24v-47zM1233 59
q1 -25 -17 -42t-42 -17h-127q-49 0 -66 33l-633 1202q-4 6 -6 6t-2 -6v-1196q0 -15 -11 -27t-26 -12h-106q-37 0 -37 25v1439q0 25 17 41t42 17h113q41 0 56 -8t28 -33l628 -1196l5 -6q2 0 2 6v1198q0 16 11 27t25 12h109q37 0 37 -39v-1424z" />
    <glyph glyph-name="Ograve" unicode="&#xd2;" horiz-adv-x="1353" 
d="M813 1639q0 -13 -18 -13h-111q-20 0 -47 31l-231 258q-8 8 -8 19t22 12h135q27 0 51 -31l199 -254q8 -9 8 -22zM1042 629v264q0 475 -366 475t-365 -475v-264q-1 -475 365 -475t366 475zM1231 629q0 -328 -150 -486q-149 -157 -403 -157t-405 158t-150 485v264
q1 327 151 485t404 158t404 -158t149 -485v-264z" />
    <glyph glyph-name="Oacute" unicode="&#xd3;" horiz-adv-x="1353" 
d="M936 1931q0 -8 -8 -16l-232 -258q-29 -31 -47 -31h-110q-18 0 -19 14q0 12 8 21l201 254q25 31 49 31h135q23 -1 23 -15zM1042 629v264q0 475 -366 475t-365 -475v-264q-1 -475 365 -475t366 475zM1231 629q0 -328 -150 -486q-149 -157 -403 -157t-405 158t-150 485v264
q1 327 151 485t404 158t404 -158t149 -485v-264z" />
    <glyph glyph-name="Ocircumflex" unicode="&#xd4;" horiz-adv-x="1353" 
d="M1018 1641q0 -13 -19 -13h-106q-20 0 -47 31l-168 199l-170 -199q-29 -31 -47 -31h-107q-18 0 -18 13t8 22l197 254q25 31 49 31h174q27 0 51 -31l195 -254q8 -9 8 -22zM1042 629v264q0 475 -366 475t-365 -475v-264q-1 -475 365 -475t366 475zM1231 629
q0 -328 -150 -486q-149 -157 -403 -157t-405 158t-150 485v264q1 327 151 485t404 158t404 -158t149 -485v-264z" />
    <glyph glyph-name="Otilde" unicode="&#xd5;" horiz-adv-x="1353" 
d="M1047 1831q0 -215 -181 -215q-88 0 -143 43l-125 100q-57 45 -84 45q-63 0 -63 -94v-43q-1 -15 -11 -25t-24 -10h-64q-31 0 -33 35v43q-1 109 51 166t128 57t139 -49l145 -115q35 -29 70 -29t49 20q14 19 14 71v47q1 14 11 24t24 11h64q31 0 33 -35v-47zM1042 629v264
q0 475 -366 475t-365 -475v-264q-1 -475 365 -475t366 475zM1231 629q0 -328 -150 -486q-149 -157 -403 -157t-405 158t-150 485v264q1 327 151 485t404 158t404 -158t149 -485v-264z" />
    <glyph glyph-name="Odieresis" unicode="&#xd6;" horiz-adv-x="1353" 
d="M580 1698q0 -16 -12 -28t-29 -11h-80q-16 0 -29 11q-12 11 -12 28v166q0 16 12 28t29 13h80q14 -1 27 -13t14 -28v-166zM938 1698q0 -16 -12 -28t-29 -11h-80q-16 0 -29 11q-12 11 -12 28v166q0 16 14 28t27 13h80q17 -1 29 -13t12 -28v-166zM1042 629v264
q0 475 -366 475t-365 -475v-264q-1 -475 365 -475t366 475zM1231 629q0 -328 -150 -486q-149 -157 -403 -157t-405 158t-150 485v264q1 327 151 485t404 158t404 -158t149 -485v-264z" />
    <glyph glyph-name="multiply" unicode="&#xd7;" 
d="M999 501q0 -13 -10 -24l-57 -57q-10 -10 -24 -10t-29 16l-271 270l-268 -268q-16 -16 -30 -16t-23 10l-58 57q-10 9 -10 23t17 30l268 269l-268 270q-29 29 -7 51l58 58q10 10 24 10t29 -14l268 -271l271 271q16 16 29 16t24 -10l57 -58q10 -10 10 -23t-16 -30l-270 -270
l270 -271q16 -16 16 -29z" />
    <glyph glyph-name="Oslash" unicode="&#xd8;" horiz-adv-x="1353" 
d="M1042 629v264q0 127 -24 217l-608 -848q90 -109 268 -108q364 0 364 475zM678 1368q-367 0 -367 -475v-264q0 -121 27 -221l608 847q-92 113 -268 113zM1296 1505q0 -6 -6 -16l-145 -201q86 -154 86 -395v-264q0 -328 -150 -486q-150 -157 -393 -157t-385 129l-63 -90
q-29 -39 -52 -39h-108q-23 0 -23 22q0 8 6 17l148 204q-88 152 -88 400v264q1 327 151 485t396 158t385 -131l59 84q29 39 53 39h107q22 0 22 -23z" />
    <glyph glyph-name="Ugrave" unicode="&#xd9;" horiz-adv-x="1355" 
d="M797 1639q0 -13 -19 -13h-110q-20 0 -47 31l-232 258q-8 8 -8 16q0 14 22 15h136q27 0 51 -31l198 -254q9 -9 9 -22zM1202 553q0 -567 -524 -567t-524 567v930q0 16 11 27t28 12h110q15 0 27 -12t12 -27v-930q0 -207 76 -307t260 -100t260 98q76 100 76 309v930
q0 16 11 27t28 12h110q15 0 27 -12t12 -27v-930z" />
    <glyph glyph-name="Uacute" unicode="&#xda;" horiz-adv-x="1355" 
d="M981 1931q0 -8 -8 -16l-232 -258q-29 -31 -47 -31h-110q-18 0 -19 14q0 12 8 21l201 254q25 31 49 31h135q23 -1 23 -15zM1202 553q0 -567 -524 -567t-524 567v930q0 16 11 27t28 12h110q15 0 27 -12t12 -27v-930q0 -207 76 -307t260 -100t260 98q76 100 76 309v930
q0 16 11 27t28 12h110q15 0 27 -12t12 -27v-930z" />
    <glyph glyph-name="Ucircumflex" unicode="&#xdb;" horiz-adv-x="1355" 
d="M1012 1639q0 -13 -19 -13h-106q-18 0 -47 31l-168 198l-170 -198q-29 -31 -47 -31h-107q-18 0 -18 13t8 22l197 254q25 31 49 31h174q27 0 51 -31l195 -254q8 -9 8 -22zM1202 553q0 -567 -524 -567t-524 567v930q0 16 11 27t28 12h110q15 0 27 -12t12 -27v-930
q0 -207 76 -307t260 -100t260 98q76 100 76 309v930q0 16 11 27t28 12h110q15 0 27 -12t12 -27v-930z" />
    <glyph glyph-name="Udieresis" unicode="&#xdc;" horiz-adv-x="1355" 
d="M575 1698q0 -16 -12 -28t-28 -11h-80q-16 0 -29 11q-12 11 -12 28v166q0 16 12 28t29 13h80q14 -1 27 -13t13 -28v-166zM934 1698q0 -16 -12 -28t-29 -11h-80q-16 0 -29 11q-12 11 -12 28v166q0 16 13 28t28 13h80q17 -1 29 -13t12 -28v-166zM1202 553q0 -567 -524 -567
t-524 567v930q0 16 11 27t28 12h110q15 0 27 -12t12 -27v-930q0 -207 76 -307t260 -100t260 98q76 100 76 309v930q0 16 11 27t28 12h110q15 0 27 -12t12 -27v-930z" />
    <glyph glyph-name="Yacute" unicode="&#xdd;" horiz-adv-x="1193" 
d="M897 1931q0 -8 -8 -16l-232 -258q-27 -31 -47 -31h-110q-18 0 -19 14q0 12 8 21l201 254q25 31 49 31h135q23 -1 23 -15zM1124 1493q0 -10 -6 -23l-317 -712q-49 -106 -111 -135v-582q0 -17 -11 -29t-26 -12h-112q-14 0 -26 12q-11 12 -11 29v582q-59 23 -111 135
l-315 712q-6 12 -6 23q0 29 34 29h125q25 0 37 -29l283 -664q23 -53 47 -53t47 53l285 664q12 29 35 29h125q34 0 34 -29z" />
    <glyph glyph-name="Thorn" unicode="&#xde;" horiz-adv-x="1214" 
d="M936 872v29q0 157 -95 221t-273 64t-224 -4v-607q141 -6 203 -6q201 -1 295 71t94 232zM1122 872q0 -463 -575 -462q-117 0 -203 6v-375q0 -41 -33 -41h-114q-14 0 -26 12q-11 12 -11 29v1442q0 16 11 27t26 12h112q15 0 25 -12t10 -27v-142q160 6 199 7q580 0 579 -447
v-29z" />
    <glyph glyph-name="germandbls" unicode="&#xdf;" horiz-adv-x="1189" 
d="M897 440v29q0 117 -83 189t-234 73h-76q-16 0 -29 12q-12 12 -12 29v59q0 17 12 29t29 12h76q145 0 216 72t70 178v25q0 248 -268 248q-143 0 -213 -83t-70 -259v-1010q0 -43 -36 -43h-109q-37 0 -37 43v1010q0 251 123 375t335 124t334 -101t122 -304v-25
q1 -106 -61 -190t-155 -125q111 -39 180 -129t68 -209v-29q0 -229 -137 -342t-348 -112q-37 0 -88 5t-51 40v84q0 23 22 22l88 -2q160 0 246 68t86 237z" />
    <glyph glyph-name="agrave" unicode="&#xe0;" horiz-adv-x="1062" 
d="M664 1289q0 -13 -19 -13h-110q-18 0 -48 31l-231 258q-8 8 -8 16q0 14 22 14h136q27 0 51 -30l198 -254q9 -9 9 -22zM743 545h-151q-182 0 -248 -44t-65 -157v-25q0 -104 46 -145t156 -41t262 82v330zM924 41q0 -17 -12 -29t-29 -12h-95q-16 0 -28 12t-12 29v45
q-172 -100 -318 -100t-239 76q-93 77 -93 255v25q0 170 114 251t380 81h151v82q0 129 -49 180q-48 51 -184 51t-299 -16h-10q-37 0 -37 33v71q0 33 43 39q156 27 317 27q399 0 400 -385v-715z" />
    <glyph glyph-name="aacute" unicode="&#xe1;" horiz-adv-x="1062" 
d="M844 1581q0 -8 -8 -16l-232 -258q-27 -31 -47 -31h-111q-18 0 -18 13t8 22l201 254q25 31 49 30h135q23 0 23 -14zM743 545h-151q-182 0 -248 -44t-65 -157v-25q0 -104 46 -145t156 -41t262 82v330zM924 41q0 -17 -12 -29t-29 -12h-95q-16 0 -28 12t-12 29v45
q-172 -100 -318 -100t-239 76q-93 77 -93 255v25q0 170 114 251t380 81h151v82q0 129 -49 180q-48 51 -184 51t-299 -16h-10q-37 0 -37 33v71q0 33 43 39q156 27 317 27q399 0 400 -385v-715z" />
    <glyph glyph-name="acircumflex" unicode="&#xe2;" horiz-adv-x="1062" 
d="M870 1289q0 -13 -18 -13h-107q-20 0 -47 31l-168 198l-170 -198q-29 -31 -47 -31h-106q-18 0 -19 14q0 12 9 21l196 254q25 31 49 30h174q27 0 52 -30l194 -254q8 -9 8 -22zM743 545h-151q-182 0 -248 -44t-65 -157v-25q0 -104 46 -145t156 -41t262 82v330zM924 41
q0 -17 -12 -29t-29 -12h-95q-16 0 -28 12t-12 29v45q-172 -100 -318 -100t-239 76q-93 77 -93 255v25q0 170 114 251t380 81h151v82q0 129 -49 180q-48 51 -184 51t-299 -16h-10q-37 0 -37 33v71q0 33 43 39q156 27 317 27q399 0 400 -385v-715z" />
    <glyph glyph-name="atilde" unicode="&#xe3;" horiz-adv-x="1062" 
d="M913 1497q0 -215 -180 -215q-88 0 -143 43l-125 100q-57 45 -84 45q-63 0 -64 -94v-43q0 -14 -10 -24t-24 -11h-64q-14 0 -23 10t-10 25v43q0 109 52 166t126 57q76 0 140 -49l145 -114q35 -29 70 -29t49 19t14 71v47q0 14 10 24t25 11h64q14 0 23 -10t9 -25v-47z
M743 545h-151q-182 0 -248 -44t-65 -157v-25q0 -104 46 -145t156 -41t262 82v330zM924 41q0 -17 -12 -29t-29 -12h-95q-16 0 -28 12t-12 29v45q-172 -100 -318 -100t-239 76q-93 77 -93 255v25q0 170 114 251t380 81h151v82q0 129 -49 180q-48 51 -184 51t-299 -16h-10
q-37 0 -37 33v71q0 33 43 39q156 27 317 27q399 0 400 -385v-715z" />
    <glyph glyph-name="adieresis" unicode="&#xe4;" horiz-adv-x="1062" 
d="M436 1352q0 -16 -12 -28t-29 -11h-80q-16 0 -28 11t-13 28v166q0 14 12 27t29 14h80q13 1 27 -13t14 -28v-166zM795 1352q-1 -16 -13 -28t-28 -11h-80q-16 0 -29 11q-12 11 -12 28v166q0 14 13 27t28 14h80q16 1 28 -13t13 -28v-166zM743 545h-151q-182 0 -248 -44
t-65 -157v-25q0 -104 46 -145t156 -41t262 82v330zM924 41q0 -17 -12 -29t-29 -12h-95q-16 0 -28 12t-12 29v45q-172 -100 -318 -100t-239 76q-93 77 -93 255v25q0 170 114 251t380 81h151v82q0 129 -49 180q-48 51 -184 51t-299 -16h-10q-37 0 -37 33v71q0 33 43 39
q156 27 317 27q399 0 400 -385v-715z" />
    <glyph glyph-name="aring" unicode="&#xe5;" horiz-adv-x="1062" 
d="M635 1442q0 45 -32 76q-32 30 -77 30q-46 0 -76 -30t-30 -76q0 -45 31 -77t75 -32t77 32q32 32 32 77zM733 1440q0 -86 -60 -146q-61 -60 -147 -61q-86 0 -147 60q-61 61 -61 147t60 147q62 61 148 61t146 -60q60 -62 61 -148zM743 545h-151q-182 0 -248 -44t-65 -157
v-25q0 -104 46 -145t156 -41t262 82v330zM924 41q0 -17 -12 -29t-29 -12h-95q-16 0 -28 12t-12 29v45q-172 -100 -318 -100t-239 76q-93 77 -93 255v25q0 170 114 251t380 81h151v82q0 129 -49 180q-48 51 -184 51t-299 -16h-10q-37 0 -37 33v71q0 33 43 39q156 27 317 27
q399 0 400 -385v-715z" />
    <glyph glyph-name="ae" unicode="&#xe6;" horiz-adv-x="1746" 
d="M745 543h-153q-182 0 -247 -44t-64 -157v-18q0 -102 64 -149q65 -45 191 -45t209 63v350zM1466 643v10q0 334 -268 334q-131 0 -203 -87t-71 -247v-10h542zM201 971q-37 0 -37 33v71q0 33 43 39q156 27 317 27q244 0 340 -144q121 143 336 143t330 -138t115 -365v-86
q0 -45 -39 -45h-682v-66q0 -156 72 -230t231 -73q158 0 346 29h10q33 0 33 -29v-69q0 -39 -41 -48q-180 -35 -363 -34q-240 0 -354 120q-139 -121 -369 -120q-167 0 -279 85t-112 253v18q0 172 113 252t381 80h153v82q0 129 -50 180q-49 51 -185 51t-299 -16h-10z" />
    <glyph glyph-name="ccedilla" unicode="&#xe7;" horiz-adv-x="925" 
d="M659 -80q0 -8 -8 -16l-231 -258q-27 -31 -47 -31h-111q-18 0 -18 13t8 22l199 254q25 31 51 30h135q22 0 22 -14zM836 53q0 -37 -41 -45q-123 -23 -256 -22q-207 0 -322 134t-115 363v160q0 229 115 363t322 135q133 1 207 -13t82 -23t8 -32v-74q0 -31 -35 -30h-8
q-127 14 -254 14q-256 0 -256 -340v-160q0 -340 256 -340q127 0 254 15h8q35 0 35 -31v-74z" />
    <glyph glyph-name="egrave" unicode="&#xe8;" horiz-adv-x="1114" 
d="M733 1289q0 -13 -18 -13h-111q-18 0 -47 31l-231 258q-8 8 -8 19t22 11h135q27 0 51 -30l199 -254q8 -9 8 -22zM825 643v19q1 170 -65 246t-203 75q-274 0 -274 -321v-19h542zM1008 551q0 -45 -39 -45h-686v-29q-1 -178 69 -256t215 -78q217 0 365 23h10q33 0 33 -29v-69
q0 -39 -41 -48q-180 -34 -320 -34t-220 24q-292 91 -292 467v185q0 223 119 351t337 128t334 -128t116 -351v-111z" />
    <glyph glyph-name="eacute" unicode="&#xe9;" horiz-adv-x="1114" 
d="M889 1581q0 -8 -8 -16l-232 -258q-27 -31 -47 -31h-110q-18 0 -19 14q0 12 8 21l201 254q25 31 49 30h135q23 0 23 -14zM825 643v19q1 170 -65 246t-203 75q-274 0 -274 -321v-19h542zM1008 551q0 -45 -39 -45h-686v-29q-1 -178 69 -256t215 -78q217 0 365 23h10
q33 0 33 -29v-69q0 -39 -41 -48q-180 -34 -320 -34t-220 24q-292 91 -292 467v185q0 223 119 351t337 128t334 -128t116 -351v-111z" />
    <glyph glyph-name="ecircumflex" unicode="&#xea;" horiz-adv-x="1114" 
d="M899 1289q0 -13 -18 -13h-107q-20 0 -47 31l-168 198l-170 -198q-29 -31 -47 -31h-106q-18 0 -19 14q0 12 8 21l197 254q25 31 49 30h174q27 0 51 -30l195 -254q8 -9 8 -22zM825 643v19q1 170 -65 246t-203 75q-274 0 -274 -321v-19h542zM1008 551q0 -45 -39 -45h-686
v-29q-1 -178 69 -256t215 -78q217 0 365 23h10q33 0 33 -29v-69q0 -39 -41 -48q-180 -34 -320 -34t-220 24q-292 91 -292 467v185q0 223 119 351t337 128t334 -128t116 -351v-111z" />
    <glyph glyph-name="edieresis" unicode="&#xeb;" horiz-adv-x="1114" 
d="M467 1352q0 -16 -12 -28t-29 -11h-80q-16 0 -29 11q-12 11 -12 28v166q0 14 13 27t28 14h80q16 1 28 -13t13 -28v-166zM825 1352q0 -16 -12 -28t-29 -11h-79q-16 0 -29 11q-12 11 -12 28v166q0 14 12 27t29 14h79q14 1 28 -13t13 -28v-166zM825 643v19q1 170 -65 246
t-203 75q-274 0 -274 -321v-19h542zM1008 551q0 -45 -39 -45h-686v-29q-1 -178 69 -256t215 -78q217 0 365 23h10q33 0 33 -29v-69q0 -39 -41 -48q-180 -34 -320 -34t-220 24q-292 91 -292 467v185q0 223 119 351t337 128t334 -128t116 -351v-111z" />
    <glyph glyph-name="igrave" unicode="&#xec;" horiz-adv-x="505" 
d="M379 1289q0 -13 -19 -13h-110q-20 0 -47 31l-232 258q-8 8 -8 16q0 14 23 14h135q27 0 51 -30l199 -254q8 -9 8 -22zM342 41q0 -17 -12 -29t-29 -12h-98q-16 0 -29 12q-12 12 -12 29v1044q0 17 12 29t29 12h98q17 0 29 -12t12 -29v-1044z" />
    <glyph glyph-name="iacute" unicode="&#xed;" horiz-adv-x="505" 
d="M555 1581q0 -8 -8 -16l-232 -258q-29 -31 -47 -31h-110q-18 0 -19 14q0 12 8 21l201 254q25 31 49 30h135q23 0 23 -14zM342 41q0 -17 -12 -29t-29 -12h-98q-16 0 -29 12q-12 12 -12 29v1044q0 17 12 29t29 12h98q17 0 29 -12t12 -29v-1044z" />
    <glyph glyph-name="icircumflex" unicode="&#xee;" horiz-adv-x="505" 
d="M592 1289q0 -13 -19 -13h-106q-20 0 -47 31l-168 198l-170 -198q-27 -31 -47 -31h-107q-18 0 -18 13t8 22l197 254q25 31 49 30h174q27 0 51 -30l195 -254q8 -9 8 -22zM342 41q0 -17 -12 -29t-29 -12h-98q-16 0 -29 12q-12 12 -12 29v1044q0 17 12 29t29 12h98
q17 0 29 -12t12 -29v-1044z" />
    <glyph glyph-name="idieresis" unicode="&#xef;" horiz-adv-x="505" 
d="M154 1352q0 -16 -12 -28t-29 -11h-80q-16 0 -29 11q-12 11 -12 28v166q0 14 12 27t29 14h80q14 1 27 -13t14 -28v-166zM512 1352q0 -16 -12 -28t-29 -11h-80q-16 0 -29 11q-12 11 -12 28v166q0 14 14 27t27 14h80q17 1 29 -13t12 -28v-166zM342 41q0 -17 -12 -29t-29 -12
h-98q-16 0 -29 12q-12 12 -12 29v1044q0 17 12 29t29 12h98q17 0 29 -12t12 -29v-1044z" />
    <glyph glyph-name="eth" unicode="&#xf0;" horiz-adv-x="1116" 
d="M834 498v112q0 358 -275 359q-274 0 -274 -359v-112q0 -356 276 -357q143 -1 208 89t65 268zM1014 498q0 -250 -115 -381t-341 -131t-341 134t-115 378v112q0 248 118 380t339 132q147 0 229 -73q-66 170 -301 280l-176 -135q-14 -12 -25 -12t-24 12l-35 39q-6 6 -6 19
t21 30l125 96q-92 31 -162 45q-33 8 -33 31q0 6 2 10l25 70q10 30 45 20q145 -35 254 -75l192 145q10 8 26 8t25 -10l35 -37q8 -8 8 -18t-20 -27l-150 -115q228 -129 314 -313t86 -502v-112z" />
    <glyph glyph-name="ntilde" unicode="&#xf1;" horiz-adv-x="1140" 
d="M942 1497q0 -215 -180 -215q-88 0 -144 43l-124 100q-57 45 -84 45q-63 0 -64 -94v-43q0 -14 -10 -24t-25 -11h-63q-14 0 -24 10t-9 25v43q0 109 51 166t127 57t139 -49l146 -114q35 -29 70 -29t49 19t14 71v47q0 14 10 24t25 11h63q13 0 23 -10t10 -25v-47zM1001 41
q0 -17 -12 -29t-28 -12h-99q-16 0 -28 12t-13 29v674q0 152 -52 211t-171 59t-279 -80v-864q0 -17 -12 -29t-28 -12h-101q-16 0 -27 12t-12 29v1044q-1 17 11 29t28 12h103q16 0 27 -12t11 -29v-38q168 94 326 94q356 0 356 -426v-674z" />
    <glyph glyph-name="ograve" unicode="&#xf2;" horiz-adv-x="1116" 
d="M676 1289q0 -13 -19 -13h-110q-18 0 -47 31l-232 258q-8 8 -8 16q0 14 23 14h135q27 0 51 -30l199 -254q8 -9 8 -22zM834 485v156q0 342 -276 342t-275 -342v-156q0 -342 274 -342q139 0 208 89t69 253zM1014 485q0 -231 -118 -365t-339 -134t-338 134t-117 365v156
q0 231 117 365t338 135q221 0 339 -134t118 -366v-156z" />
    <glyph glyph-name="oacute" unicode="&#xf3;" horiz-adv-x="1116" 
d="M872 1581q0 -8 -8 -16l-231 -258q-27 -31 -47 -31h-111q-18 0 -18 13t8 22l201 254q25 31 49 30h135q22 0 22 -14zM834 485v156q0 342 -276 342t-275 -342v-156q0 -342 274 -342q139 0 208 89t69 253zM1014 485q0 -231 -118 -365t-339 -134t-338 134t-117 365v156
q0 231 117 365t338 135q221 0 339 -134t118 -366v-156z" />
    <glyph glyph-name="ocircumflex" unicode="&#xf4;" horiz-adv-x="1116" 
d="M901 1289q0 -13 -18 -13h-107q-18 0 -47 31l-168 198l-170 -198q-27 -31 -47 -31h-106q-18 0 -19 14q0 12 8 21l197 254q25 31 49 30h174q27 0 51 -30l195 -254q8 -9 8 -22zM834 485v156q0 342 -276 342t-275 -342v-156q0 -342 274 -342q139 0 208 89t69 253zM1014 485
q0 -231 -118 -365t-339 -134t-338 134t-117 365v156q0 231 117 365t338 135q221 0 339 -134t118 -366v-156z" />
    <glyph glyph-name="otilde" unicode="&#xf5;" horiz-adv-x="1116" 
d="M934 1497q0 -215 -180 -215q-88 0 -144 43l-125 100q-57 45 -84 45q-63 0 -63 -94v-43q0 -14 -10 -24t-25 -11h-63q-14 0 -24 10t-9 25v43q0 109 51 166q50 57 126 57t140 -49l146 -114q36 -29 70 -29t48 19t15 71v47q0 14 10 24t25 11h63q13 0 23 -10t10 -25v-47z
M834 485v156q0 342 -276 342t-275 -342v-156q0 -342 274 -342q139 0 208 89t69 253zM1014 485q0 -231 -118 -365t-339 -134t-338 134t-117 365v156q0 231 117 365t338 135q221 0 339 -134t118 -366v-156z" />
    <glyph glyph-name="odieresis" unicode="&#xf6;" horiz-adv-x="1116" 
d="M457 1352q-1 -16 -13 -28t-28 -11h-80q-16 0 -29 11q-12 11 -12 28v166q0 14 12 27t29 14h80q14 1 27 -13t14 -28v-166zM815 1352q0 -16 -12 -28t-29 -11h-80q-16 0 -28 11t-13 28v166q-1 14 13 27t28 14h80q16 1 28 -13t13 -28v-166zM834 485v156q0 342 -276 342
t-275 -342v-156q0 -342 274 -342q139 0 208 89t69 253zM1014 485q0 -231 -118 -365t-339 -134t-338 134t-117 365v156q0 231 117 365t338 135q221 0 339 -134t118 -366v-156z" />
    <glyph glyph-name="divide" unicode="&#xf7;" 
d="M707 332q1 -16 -11 -28t-28 -11h-99q-16 0 -28 11t-13 28v182q0 14 12 26t29 13h99q16 0 27 -12t12 -27v-182zM1055 760q0 -33 -41 -33h-789q-41 0 -41 33v82q0 33 41 32h789q41 0 41 -32v-82zM707 1079q1 -16 -11 -28t-28 -13h-99q-16 0 -28 12t-13 29v181q0 14 12 26
t29 12h99q16 0 27 -12t12 -26v-181z" />
    <glyph glyph-name="oslash" unicode="&#xf8;" horiz-adv-x="1116" 
d="M834 485v156q0 86 -23 160l-438 -594q68 -63 184 -64q277 0 277 342zM557 983q-274 0 -274 -342v-156q0 -94 20 -161l438 596q-70 63 -184 63zM1065 1194q16 0 16 -15t-8 -24l-143 -192q84 -127 84 -322v-156q0 -231 -118 -365t-339 -134q-174 0 -285 86l-90 -123
q-16 -20 -32 -21h-101q-16 0 -16 16t8 23l145 197q-84 127 -84 321v156q0 231 117 365t338 135q176 0 287 -86l86 119q16 20 33 20h102z" />
    <glyph glyph-name="ugrave" unicode="&#xf9;" horiz-adv-x="1140" 
d="M688 1289q0 -13 -18 -13h-111q-18 0 -47 31l-231 258q-9 8 -9 19t23 11h135q27 0 51 -30l199 -254q8 -9 8 -22zM1001 41q0 -17 -11 -29t-27 -12h-103q-16 0 -27 12t-12 29v39q-168 -94 -325 -94q-356 0 -357 426v673q1 17 13 29t28 12h99q16 0 28 -12t12 -29v-673
q1 -152 53 -211t171 -59t278 79v864q1 17 13 29t28 12h101q16 0 27 -12t11 -29v-1044z" />
    <glyph glyph-name="uacute" unicode="&#xfa;" horiz-adv-x="1140" 
d="M889 1581q0 -8 -8 -16l-232 -258q-27 -31 -47 -31h-110q-18 0 -19 14q0 12 8 21l201 254q25 31 49 30h135q23 0 23 -14zM1001 41q0 -17 -11 -29t-27 -12h-103q-16 0 -27 12t-12 29v39q-168 -94 -325 -94q-356 0 -357 426v673q1 17 13 29t28 12h99q16 0 28 -12t12 -29
v-673q1 -152 53 -211t171 -59t278 79v864q1 17 13 29t28 12h101q16 0 27 -12t11 -29v-1044z" />
    <glyph glyph-name="ucircumflex" unicode="&#xfb;" horiz-adv-x="1140" 
d="M913 1289q0 -13 -18 -13h-107q-18 0 -47 31l-168 198l-170 -198q-27 -31 -47 -31h-106q-18 0 -19 14q0 12 9 21l196 254q25 31 49 30h174q27 0 52 -30l194 -254q8 -9 8 -22zM1001 41q0 -17 -11 -29t-27 -12h-103q-16 0 -27 12t-12 29v39q-168 -94 -325 -94
q-356 0 -357 426v673q1 17 13 29t28 12h99q16 0 28 -12t12 -29v-673q1 -152 53 -211t171 -59t278 79v864q1 17 13 29t28 12h101q16 0 27 -12t11 -29v-1044z" />
    <glyph glyph-name="udieresis" unicode="&#xfc;" horiz-adv-x="1140" 
d="M471 1352q0 -16 -12 -28t-29 -11h-80q-16 0 -28 11t-13 28v166q-1 14 13 27t28 14h80q16 1 28 -13t13 -28v-166zM829 1352q0 -16 -12 -28t-29 -11h-79q-16 0 -29 11q-12 11 -12 28v166q0 14 12 27t29 14h79q14 1 28 -13t13 -28v-166zM1001 41q0 -17 -11 -29t-27 -12h-103
q-16 0 -27 12t-12 29v39q-168 -94 -325 -94q-356 0 -357 426v673q1 17 13 29t28 12h99q16 0 28 -12t12 -29v-673q1 -152 53 -211t171 -59t278 79v864q1 17 13 29t28 12h101q16 0 27 -12t11 -29v-1044z" />
    <glyph glyph-name="yacute" unicode="&#xfd;" horiz-adv-x="1093" 
d="M913 1581q0 -8 -8 -16l-231 -258q-27 -31 -47 -31h-111q-18 0 -18 13t8 22l201 254q25 31 49 30h135q22 0 22 -14zM1014 1092q0 -10 -2 -15l-338 -1179q-49 -172 -126 -238t-249 -66q-95 0 -155 14t-60 38v75q0 33 39 33h6q135 -12 203 -12t113 35q44 35 69 139l21 84
h-29q-55 0 -91 28t-61 113l-272 936q-2 4 -2 15q0 35 37 34h112q27 0 35 -32l242 -889q10 -45 39 -45h33l249 936q8 31 39 30h115q33 1 33 -34z" />
    <glyph glyph-name="thorn" unicode="&#xfe;" horiz-adv-x="1107" 
d="M825 487v148q0 172 -60 263q-59 91 -195 91t-251 -20v-811q113 -20 248 -20t197 87q61 88 61 262zM176 -401q-35 0 -37 39v1861q1 17 13 29t28 12h99q16 0 28 -12t12 -29v-379q133 20 240 21q223 0 335 -134t112 -372v-148q0 -245 -113 -373t-334 -128q-115 0 -240 22
v-370q0 -16 -11 -28t-27 -11h-105z" />
    <glyph glyph-name="ydieresis" unicode="&#xff;" horiz-adv-x="1093" 
d="M469 1352q0 -16 -12 -28t-29 -11h-80q-16 0 -29 11q-12 11 -12 28v166q0 14 12 27t29 14h80q14 1 28 -13t13 -28v-166zM827 1352q0 -16 -12 -28t-29 -11h-79q-16 0 -29 11q-12 11 -12 28v166q0 14 13 27t28 14h79q16 1 28 -13t13 -28v-166zM1014 1092q0 -10 -2 -15
l-338 -1179q-49 -172 -126 -238t-249 -66q-95 0 -155 14t-60 38v75q0 33 39 33h6q135 -12 203 -12t113 35q44 35 69 139l21 84h-29q-55 0 -91 28t-61 113l-272 936q-2 4 -2 15q0 35 37 34h112q27 0 35 -32l242 -889q10 -45 39 -45h33l249 936q8 31 39 30h115q33 1 33 -34z
" />
    <glyph glyph-name="dotlessi" unicode="&#x131;" horiz-adv-x="505" 
d="M342 41q0 -17 -12 -29t-29 -12h-98q-16 0 -29 12q-12 12 -12 29v1044q0 17 12 29t29 12h98q17 0 29 -12t12 -29v-1044z" />
    <glyph glyph-name="Lslash" unicode="&#x141;" horiz-adv-x="1052" 
d="M1016 33q0 -25 -21 -29q-119 -18 -399 -18q-219 0 -328 90t-108 291v239l-125 -153q-9 -13 -23 -13t-14 13v131q0 27 14 45l148 182v670q0 16 12 28t29 13h104q17 0 29 -12t12 -29v-443l139 172q12 14 23 15q14 0 14 -15v-133q0 -27 -16 -47l-160 -196v-467
q0 -123 48 -168t204 -45h395q23 0 23 -25v-96z" />
    <glyph glyph-name="lslash" unicode="&#x142;" horiz-adv-x="499" 
d="M508 1069q0 -16 -12 -33l-156 -192v-803q0 -41 -37 -41h-106q-14 0 -26 12q-11 12 -11 29v582l-140 -170q-8 -11 -22 -11t-14 17v125q0 29 14 45l162 198v674q0 39 37 39h106q17 0 27 -11t10 -28v-452l131 161q8 10 22 10t15 -18v-133z" />
    <glyph glyph-name="OE" unicode="&#x152;" horiz-adv-x="2013" 
d="M1044 627v274q0 467 -366 467t-367 -475v-264q1 -475 367 -475t366 473zM1901 31q0 -25 -21 -29q-120 -18 -410 -18t-380 170q-142 -168 -404 -168t-413 158t-150 485v264q1 327 151 485t411 158t405 -168q92 168 381 168t409 -18q20 -4 21 -29v-96q0 -25 -23 -25h-395
q-156 0 -204 -45t-48 -168v-285h629q16 0 28 -12t13 -29v-77q-1 -16 -13 -28t-28 -13h-629v-346q0 -123 48 -168t204 -45h395q23 0 23 -25v-96z" />
    <glyph glyph-name="oe" unicode="&#x153;" horiz-adv-x="1841" 
d="M834 485v156q0 342 -276 342t-275 -342v-156q0 -342 274 -342q139 0 208 89t69 253zM1556 643v19q0 170 -66 246t-202 75q-274 0 -274 -321v-19h542zM1739 551q0 -45 -39 -45h-686v-21q0 -170 61 -256t223 -86q217 0 365 23h10q33 0 33 -29v-69q0 -39 -41 -48
q-180 -35 -367 -34q-262 0 -376 168q-118 -168 -352 -168t-351 134t-117 365v156q0 231 117 365t351 135q234 0 354 -168q117 168 350 168t349 -128t116 -351v-111z" />
    <glyph glyph-name="Scaron" unicode="&#x160;" horiz-adv-x="1126" 
d="M934 1932q0 -13 -8 -21l-199 -254q-25 -31 -51 -31h-174q-25 0 -49 31l-201 254q-8 8 -8 21t18 14h111q18 0 47 -33l170 -197l168 197q29 33 47 33h110q19 -1 19 -14zM139 51v82q0 33 35 33h6q140 -12 326 -12t255 62t68 179q0 76 -51 131t-194 144l-199 121
q-147 90 -215 177t-68 206q0 362 490 362q201 0 356 -25q35 -6 35 -34v-88q0 -33 -35 -33h-4q-180 12 -347 12t-237 -42t-69 -152q0 -70 49 -121t174 -127l188 -113q178 -103 250 -199t72 -236t-107 -267t-399 -125q-160 0 -262 16t-110 24q-7 8 -7 25z" />
    <glyph glyph-name="scaron" unicode="&#x161;" horiz-adv-x="954" 
d="M793 1595q18 0 18 -13t-8 -21l-199 -254q-25 -31 -51 -31h-174q-25 0 -49 31l-201 254q-8 8 -8 21t18 13h111q18 0 47 -32l170 -197l168 197q29 33 47 32h111zM852 283q0 -299 -392 -297q-190 0 -315 30q-43 10 -43 41v72q0 31 37 31h8q180 -23 303 -23t173 33
q49 33 49 113q0 45 -33 81t-121 89l-207 122q-209 127 -209 293q0 272 371 273q164 0 320 -27q39 -6 38 -41v-67q0 -35 -34 -35h-6q-190 16 -303 16q-113 1 -159 -23t-46 -82q1 -58 33 -90q32 -34 108 -79l203 -121q125 -74 175 -146t50 -163z" />
    <glyph glyph-name="Ydieresis" unicode="&#x178;" horiz-adv-x="1193" 
d="M498 1681q0 -16 -12 -27t-29 -12h-80q-17 0 -29 12t-12 27v166q0 17 12 29t29 12h80q14 0 27 -12t14 -29v-166zM856 1681q0 -16 -12 -27t-29 -12h-80q-16 0 -28 12t-13 27v166q0 17 14 29t27 12h80q17 0 29 -12t12 -29v-166zM1124 1493q0 -10 -6 -23l-317 -712
q-49 -106 -111 -135v-582q0 -17 -11 -29t-26 -12h-112q-14 0 -26 12q-11 12 -11 29v582q-59 23 -111 135l-315 712q-6 12 -6 23q0 29 34 29h125q25 0 37 -29l283 -664q23 -53 47 -53t47 53l285 664q12 29 35 29h125q34 0 34 -29z" />
    <glyph glyph-name="Zcaron" unicode="&#x17d;" horiz-adv-x="1222" 
d="M963 1932q0 -13 -9 -21l-198 -254q-25 -31 -51 -31h-175q-25 0 -49 31l-200 254q-8 8 -9 20q0 14 19 15h110q18 0 48 -33l169 -197l168 197q29 33 48 33h110q19 -1 19 -14zM1114 37q0 -13 -12 -25t-29 -12h-788q-98 0 -134 29t-36 107t30 122l734 1067q6 10 6 16
q0 14 -21 15h-680q-41 0 -41 35v96q0 35 41 35h729q91 0 133 -28t42 -104t-33 -124l-731 -1067q-6 -10 -7 -19q0 -12 21 -12h735q41 0 41 -35v-96z" />
    <glyph glyph-name="zcaron" unicode="&#x17e;" horiz-adv-x="987" 
d="M827 1595q19 0 19 -13t-8 -21l-199 -254q-25 -31 -51 -31h-174q-25 0 -49 31l-201 254q-8 8 -8 21t18 13h111q18 0 47 -32l170 -197l168 197q29 33 47 32h110zM885 41q-1 -17 -13 -29t-28 -12h-619q-61 0 -93 33t-32 80v39q0 72 47 133l529 657q8 12 8 19q0 14 -20 14
h-498q-16 0 -29 12q-12 12 -12 29v69q0 17 12 29t29 12h602q115 0 115 -100v-49q0 -57 -47 -113l-539 -674q-10 -10 -10 -24t16 -14h541q16 0 28 -12t13 -29v-70z" />
    <glyph glyph-name="florin" unicode="&#x192;" 
d="M1122 1520v-7l-8 -65q-4 -31 -49 -31h-113q-74 1 -108 -29t-43 -110l-56 -401h293q35 0 35 -31v-6l-10 -76q-4 -37 -45 -37h-293l-102 -731q-41 -281 -328 -281q-66 0 -141 11q-35 6 -35 28v6l8 66q4 31 49 31h113q73 -1 107 29t44 110l103 731h-262q-37 0 -37 33v4
l10 76q2 14 16 25t31 12h262l55 401q37 281 328 281q66 0 141 -11q35 -5 35 -28z" />
    <glyph glyph-name="circumflex" unicode="&#x2c6;" horiz-adv-x="763" 
d="M723 1289q0 -13 -18 -13h-107q-20 0 -47 31l-168 198l-170 -198q-29 -31 -47 -31h-107q-18 0 -18 13t8 22l197 254q25 31 49 30h174q27 0 51 -30l195 -254q8 -9 8 -22z" />
    <glyph glyph-name="caron" unicode="&#x2c7;" horiz-adv-x="763" 
d="M709 1595q18 0 18 -13t-8 -21l-199 -254q-25 -31 -51 -31h-174q-25 0 -49 31l-201 254q-8 8 -8 21t18 13h111q18 0 47 -32l170 -197l168 197q29 33 47 32h111z" />
    <glyph glyph-name="uni02C9" unicode="&#x2c9;" horiz-adv-x="763" 
d="M719 1417q0 -35 -41 -35h-590q-41 0 -41 35v70q0 35 41 35h590q41 0 41 -35v-70z" />
    <glyph glyph-name="breve" unicode="&#x2d8;" horiz-adv-x="763" 
d="M717 1569v-8q-9 -135 -107 -212t-227 -77t-226 77t-108 212v8q0 27 23 26h75q29 0 31 -32q8 -78 68 -121t137 -43q78 0 137 43t68 121q2 33 30 32h76q23 1 23 -26z" />
    <glyph glyph-name="dotaccent" unicode="&#x2d9;" horiz-adv-x="763" 
d="M471 1348q0 -16 -11 -28t-28 -13h-98q-16 0 -29 12q-12 12 -12 29v172q0 14 12 26t29 13h98q14 1 26 -11t13 -28v-172z" />
    <glyph glyph-name="ring" unicode="&#x2da;" horiz-adv-x="763" 
d="M492 1442q0 45 -32 76q-32 30 -77 30t-76 -30t-31 -76q0 -45 31 -77t76 -32t77 32t32 77zM590 1440q0 -86 -60 -146t-147 -61q-86 0 -147 60q-62 61 -62 147t62 147t147 61q87 0 147 -60q60 -62 60 -148z" />
    <glyph glyph-name="ogonek" unicode="&#x2db;" horiz-adv-x="749" 
d="M608 -367q0 -16 -22 -22q-61 -20 -156 -21q-268 0 -268 197q0 111 131 186l135 82q29 20 51 21h107q25 0 23 -24q-1 -9 -9 -15l-178 -123q-44 -31 -62 -44q-46 -35 -49 -83q0 -78 142 -78q59 1 100 11t48 10t7 -17v-80z" />
    <glyph glyph-name="tilde" unicode="&#x2dc;" horiz-adv-x="1009" 
d="M858 1497q0 -215 -180 -215q-88 0 -143 43l-125 100q-57 45 -84 45q-63 0 -64 -94v-43q0 -14 -10 -24t-25 -11h-63q-14 0 -24 10t-9 25v43q0 109 51 166t127 57t140 -49l145 -114q37 -29 71 -29t48 19t14 71v47q0 14 10 24t25 11h63q13 0 23 -10t10 -25v-47z" />
    <glyph glyph-name="hungarumlaut" unicode="&#x2dd;" horiz-adv-x="763" 
d="M485 1581q0 -8 -8 -16l-229 -258q-27 -31 -47 -31h-111q-18 0 -18 13t8 22l199 254q25 31 51 30h133q22 0 22 -14zM844 1581q0 -8 -8 -16l-230 -258q-29 -31 -47 -31h-110q-18 0 -19 14q0 12 8 21l199 254q25 31 51 30h133q23 0 23 -14z" />
    <glyph glyph-name="uni03A9" unicode="&#x3a9;" horiz-adv-x="1212" 
d="M1139 43q0 -43 -47 -43h-371q-43 0 -43 43v231q0 27 5 36t24 16q256 90 256 438v180q-1 436 -357 436t-356 -436v-180q0 -348 256 -438q18 -6 23 -16t6 -36v-231q0 -43 -43 -43h-371q-47 0 -47 43v70q0 41 47 41h248v75q-303 129 -303 535v180q0 287 142 445
q142 157 398 157t399 -157q142 -158 142 -445v-180q0 -406 -303 -535v-75h248q47 0 47 -41v-70z" />
    <glyph glyph-name="uni03BC" unicode="&#x3bc;" horiz-adv-x="1140" 
d="M1001 90q0 -35 -38 -47q-157 -57 -349 -57t-295 59v-405q0 -16 -12 -28t-28 -13h-99q-16 0 -28 12t-13 29v1445q-1 17 11 29t28 12h103q16 0 27 -12t11 -29v-673q-1 -143 63 -208t202 -65t237 29v917q1 17 13 29t28 12h101q16 0 27 -12t11 -29v-995z" />
    <glyph glyph-name="pi" unicode="&#x3c0;" horiz-adv-x="1130" 
d="M1057 961h-142v-687q-1 -94 19 -124t84 -29h49q20 0 20 -23v-88q0 -20 -6 -22q-34 -11 -98 -13q-137 0 -191 67t-55 232v687h-340v-920q0 -41 -28 -41h-123q-31 0 -31 41v920h-141q-18 0 -25 6q-6 6 -6 24v103q0 20 7 26t24 6h983q16 0 23 -6t7 -26v-103q0 -18 -6 -24
t-24 -6z" />
    <glyph glyph-name="endash" unicode="&#x2013;" horiz-adv-x="634" 
d="M627 655q37 0 39 -37v-79q0 -35 -39 -35h-619q-39 0 -39 35v79q-1 16 11 26t28 11h619z" />
    <glyph glyph-name="emdash" unicode="&#x2014;" horiz-adv-x="1228" 
d="M1221 655q37 0 39 -37v-79q0 -35 -39 -35h-1213q-39 0 -39 35v79q-1 16 11 26t28 11h1213z" />
    <glyph glyph-name="quoteleft" unicode="&#x2018;" horiz-adv-x="380" 
d="M322 1520q0 -12 -3 -19l-75 -387q-8 -39 -41 -39h-121q-23 0 -23 23q0 10 2 16l125 387q10 39 39 39h78q19 0 19 -20z" />
    <glyph glyph-name="quoteright" unicode="&#x2019;" horiz-adv-x="380" 
d="M322 1518q0 -10 -3 -17l-124 -387q-10 -39 -39 -39h-78q-18 1 -18 17t1 22l76 387q8 39 41 39h121q23 1 23 -22z" />
    <glyph glyph-name="quotesinglbase" unicode="&#x201a;" horiz-adv-x="380" 
d="M346 242q0 -4 -4 -17l-154 -387q-14 -39 -38 -39h-84q-25 0 -25 25q0 10 2 14l117 387q12 39 41 39h118q27 1 27 -22z" />
    <glyph glyph-name="quotedblleft" unicode="&#x201c;" horiz-adv-x="688" 
d="M322 1520q0 -12 -3 -19l-75 -387q-8 -39 -41 -39h-121q-23 0 -23 23q0 10 2 16l125 387q10 39 39 39h78q19 0 19 -20zM629 1520q0 -12 -2 -19l-76 -387q-8 -39 -41 -39h-121q-23 0 -22 23q0 10 2 16l125 387q10 39 38 39h78q19 0 19 -20z" />
    <glyph glyph-name="quotedblright" unicode="&#x201d;" horiz-adv-x="688" 
d="M322 1518q0 -10 -3 -17l-124 -387q-10 -39 -39 -39h-78q-18 1 -18 17t1 22l76 387q8 39 41 39h121q23 1 23 -22zM629 1518q0 -10 -2 -17l-125 -387q-10 -39 -39 -39h-78q-18 0 -18 21q0 12 2 18l75 387q8 39 41 39h121q23 1 23 -22z" />
    <glyph glyph-name="quotedblbase" unicode="&#x201e;" horiz-adv-x="688" 
d="M346 242q0 -4 -4 -17l-154 -387q-14 -39 -38 -39h-84q-25 0 -25 25q0 10 2 14l117 387q12 39 41 39h118q27 1 27 -22zM715 242q0 -4 -4 -17l-154 -387q-14 -39 -39 -39h-84q-25 0 -24 25q0 10 2 14l116 387q12 39 41 39h119q27 1 27 -22z" />
    <glyph glyph-name="dagger" unicode="&#x2020;" horiz-adv-x="827" 
d="M752 1014q0 -33 -39 -33h-224v-940q0 -41 -32 -41h-117q-33 0 -33 41v940h-192q-39 0 -39 33v92q0 31 39 31h192v364q0 39 35 39h115q33 0 32 -39v-364h224q39 0 39 -31v-92z" />
    <glyph glyph-name="daggerdbl" unicode="&#x2021;" horiz-adv-x="827" 
d="M752 584q0 -33 -39 -33h-224v-510q0 -41 -32 -41h-117q-33 0 -33 41v510h-192q-39 0 -39 33v92q0 31 39 31h192v274h-192q-39 0 -39 33v92q0 31 39 31h192v364q0 39 35 39h115q33 0 32 -39v-364h224q39 0 39 -31v-92q0 -33 -39 -33h-224v-274h224q39 0 39 -31v-92z" />
    <glyph glyph-name="bullet" unicode="&#x2022;" horiz-adv-x="856" 
d="M754 752q0 -134 -96 -230t-230 -96q-135 0 -230 95q-96 95 -96 231t96 230q96 95 230 95t230 -95t96 -230z" />
    <glyph glyph-name="ellipsis" unicode="&#x2026;" horiz-adv-x="1241" 
d="M297 39q0 -15 -11 -27t-28 -12h-98q-16 0 -29 11q-12 11 -12 28v192q0 15 12 27t29 12h98q16 0 28 -12t11 -27v-192zM711 39q-1 -15 -13 -27t-28 -12h-99q-16 0 -27 11t-12 28v192q0 15 12 27t27 12h99q16 0 28 -12t13 -27v-192zM1122 39q0 -15 -11 -27t-28 -12h-98
q-16 0 -29 11q-12 11 -12 28v192q0 15 12 27t29 12h98q15 0 27 -12t12 -27v-192z" />
    <glyph glyph-name="perthousand" unicode="&#x2030;" horiz-adv-x="2322" 
d="M516 1016v190q0 215 -148 215t-149 -215v-190q1 -215 149 -215t148 215zM1407 317v191q-1 215 -149 215t-148 -215v-191q0 -215 148 -215t149 215zM2103 317v191q-1 215 -149 215t-148 -215v-191q0 -215 148 -215t149 215zM643 1016q0 -164 -72 -248q-73 -84 -203 -84
t-203 84t-73 248v190q0 166 72 248t205 82q274 0 274 -330v-190zM1331 1512q0 -9 -10 -29l-856 -1450q-23 -41 -45 -41h-107q-16 0 -16 12t10 29l856 1450q23 39 47 39h105q16 -1 16 -10zM1534 317q0 -163 -72 -247t-202 -84t-204 84q-73 84 -73 247v191q0 166 73 249
t204 83q130 0 202 -83t72 -249v-191zM2230 317q0 -163 -72 -247t-202 -84q-131 0 -204 84t-73 247v191q0 166 73 249t204 83t203 -83t71 -249v-191z" />
    <glyph glyph-name="guilsinglleft" unicode="&#x2039;" horiz-adv-x="724" 
d="M614 160q0 -16 -22 -17h-119q-23 0 -43 21l-346 346q-23 24 -23 58t23 57l346 346q20 20 43 20h119q23 0 22 -18q0 -14 -12 -27l-364 -379l364 -379q12 -12 12 -28z" />
    <glyph glyph-name="guilsinglright" unicode="&#x203a;" horiz-adv-x="724" 
d="M664 567q0 -35 -23 -57l-346 -346q-20 -20 -43 -21h-119q-23 0 -22 19q0 14 12 26l364 379l-364 379q-12 12 -12 28t22 17h119q23 0 43 -20l346 -346q23 -23 23 -58z" />
    <glyph glyph-name="fraction" unicode="&#x2044;" horiz-adv-x="522" 
d="M756 1522q35 0 12 -39l-856 -1450q-23 -41 -45 -41h-96q-16 0 -22 11q-5 11 5 30l862 1460q12 21 18 25t23 4h99z" />
    <glyph glyph-name="i.superior" unicode="&#x2071;" horiz-adv-x="290" 
d="M209 1425q0 -33 -33 -32h-59q-14 0 -25 9q-10 9 -10 23v93q0 14 10 23t25 9h59q33 0 33 -32v-93zM207 690q0 -33 -33 -33h-57q-33 0 -33 33v588q0 33 33 33h57q33 0 33 -33v-588z" />
    <glyph glyph-name="franc" unicode="&#x20a3;" horiz-adv-x="1128" 
d="M1016 1393q0 -25 -23 -25h-395q-156 0 -204 -45t-48 -168v-285h629q17 0 29 -12t12 -29v-77q0 -16 -12 -28t-29 -13h-629v-195h242q16 0 28 -12t13 -29v-78q-1 -16 -13 -28t-28 -13h-242v-315q0 -17 -12 -29t-29 -12h-104q-16 0 -29 12q-12 12 -12 29v315h-119
q-17 0 -29 12t-12 29v78q0 17 12 29t29 12h119v639q0 201 108 291q110 90 354 90t373 -12q20 -4 21 -29v-102z" />
    <glyph glyph-name="lira" unicode="&#x20a4;" 
d="M913 604q39 0 39 -37v-86q0 -13 -12 -25t-29 -12h-438v-45q0 -113 -72 -243h654q41 0 41 -31v-90q0 -35 -41 -35h-817q-35 0 -35 31v80q0 12 20 47q63 109 64 241v45h-107q-37 0 -37 37v86q1 13 13 25t28 12h103v148h-107q-37 0 -37 36v86q1 14 13 26t28 11h103v93
q0 266 100 391t352 125q159 0 251 -16t99 -22q7 -7 7 -24v-84q0 -35 -31 -35h-10q-199 23 -337 23t-191 -75q-54 -75 -54 -283v-93h440q39 0 39 -37v-86q0 -14 -12 -25t-29 -11h-438v-148h440z" />
    <glyph glyph-name="peseta" unicode="&#x20a7;" horiz-adv-x="2957" 
d="M2855 283q0 -299 -392 -297q-190 0 -315 30q-43 10 -43 41v72q0 31 37 31h8q180 -23 303 -23t173 33q49 33 49 113q0 45 -33 81t-121 89l-207 122q-209 127 -209 293q0 272 371 273q164 0 320 -27q39 -6 38 -41v-67q0 -35 -34 -35h-7q-191 16 -303 16q-112 1 -158 -23
t-46 -82t32 -90q32 -34 109 -79l203 -121q125 -74 175 -146t50 -163zM1952 31q0 -29 -37 -35q-68 -10 -133 -10q-150 0 -214 56t-65 218v715l-198 22q-39 4 -39 37v56q0 37 39 36h198v201q0 35 37 41l107 16h6q31 0 30 -34v-224h222q16 0 28 -12t13 -29v-69q0 -16 -12 -28
t-29 -13h-222v-715q0 -82 23 -106t88 -23h115q43 0 43 -29v-71zM936 1065v27q0 154 -93 220t-294 66q-106 0 -205 -8v-600q188 -8 205 -8q209 0 298 70t89 233zM1122 1065q0 -459 -573 -459q-72 0 -205 10v-575q0 -17 -10 -29t-27 -12h-110q-14 0 -26 12q-11 12 -11 29v1427
q0 45 49 52q141 16 340 16q573 0 573 -444v-27z" />
    <glyph glyph-name="Euro" unicode="&#x20ac;" 
d="M1135 53q0 -33 -41 -41q-138 -26 -272 -26t-224 28t-175 87q-85 60 -141 174t-67 268h-68q-16 0 -28 12t-13 29v57q0 17 12 29t29 12h66v166h-66q-16 0 -28 12t-13 29v57q0 16 12 28t29 13h68q22 348 278 479q135 70 266 70t339 -33q33 -4 32 -26v-105q0 -23 -24 -22h-6
q-221 18 -312 18q-154 0 -260 -90t-125 -291h594q35 0 35 -33v-4l-2 -4l-14 -57q-10 -41 -41 -41h-576v-166h527q31 0 30 -31l-2 -4v-6l-14 -57q-10 -41 -41 -41h-498q16 -203 124 -296t263 -93q109 0 306 16h8q33 0 33 -33v-84z" />
    <glyph glyph-name="afii61289" unicode="&#x2113;" horiz-adv-x="921" 
d="M743 1339q0 162 -147 162q-86 0 -117 -61t-30 -207v-434q154 159 224 281t70 259zM547 -23q-149 0 -215 83t-66 255v220l-127 -105q-31 -27 -49 0l-22 35q-16 27 4 45l194 164v559q0 188 71 279q71 92 225 92t226 -75t72 -190q0 -311 -411 -682v-333q0 -193 141 -193
q84 0 182 64q33 23 53 -5l27 -55q16 -29 -6 -49q-51 -47 -136 -78t-163 -31z" />
    <glyph glyph-name="trademark" unicode="&#x2122;" horiz-adv-x="1617" 
d="M649 1440q0 -29 -35 -29h-198v-690q0 -13 -9 -23t-24 -10h-66q-31 0 -30 33v690h-203q-33 0 -33 29v51q0 31 33 31h530q12 0 24 -10t11 -21v-51zM1530 709q0 -20 -21 -21h-84q-20 0 -20 21v491q0 129 -37 170t-178 41v-702q0 -20 -21 -21h-86q-20 0 -20 21v702
q-102 0 -217 -12v-690q0 -20 -19 -21h-84q-20 0 -20 21v759q0 37 31 39q199 21 398 21q198 0 288 -65t90 -263v-491z" />
    <glyph glyph-name="Omega" unicode="&#x2126;" horiz-adv-x="1212" 
d="M1139 43q0 -43 -47 -43h-371q-43 0 -43 43v231q0 27 5 36t24 16q256 90 256 438v180q-1 436 -357 436t-356 -436v-180q0 -348 256 -438q18 -6 23 -16t6 -36v-231q0 -43 -43 -43h-371q-47 0 -47 43v70q0 41 47 41h248v75q-303 129 -303 535v180q0 287 142 445
q142 157 398 157t399 -157q142 -158 142 -445v-180q0 -406 -303 -535v-75h248q47 0 47 -41v-70z" />
    <glyph glyph-name="estimated" unicode="&#x212e;" horiz-adv-x="1241" 
d="M936 645v334q-138 127 -324 127t-309 -127v-334h633zM1182 578h-879v-396q135 -129 301 -129t262 68t178 192l64 -39q-90 -139 -203 -214t-291 -74q-244 0 -400 173t-155 423q0 250 154 420t409 172q256 0 408 -173t152 -423z" />
    <glyph glyph-name="onethird" unicode="&#x2153;" horiz-adv-x="1529" 
d="M1313 627q-1 119 -135 117q-62 0 -185 -17l-24 -2q-35 0 -35 37v37q0 27 31 39q102 20 192 20q291 0 291 -231v-15q0 -115 -88 -172q88 -55 88 -174v-22q0 -128 -78 -190t-213 -62q-78 0 -190 22q-33 8 -33 37v37q0 37 39 37q109 -16 187 -16q78 -1 116 31q37 32 37 104
v22q0 47 -27 84t-86 37h-201q-35 0 -34 33v41q0 35 34 35h201q113 0 113 116v15zM82 1348v57q0 20 20 27l164 77q25 12 66 13h12q23 0 29 -10t6 -29v-774q0 -15 -10 -27t-25 -12h-61q-14 0 -25 11q-10 11 -10 28v667l-131 -55q-35 -12 -35 27zM1188 1512q0 -9 -10 -29
l-856 -1450q-23 -41 -46 -41h-100q-20 0 -20 15t8 26l856 1450q23 39 47 39h104q17 -1 17 -10z" />
    <glyph glyph-name="twothirds" unicode="&#x2154;" horiz-adv-x="1814" 
d="M1597 627q1 119 -133 117q-62 0 -186 -17l-25 -2q-35 0 -34 37v37q0 27 30 39q102 20 193 20q291 0 291 -231v-15q0 -115 -88 -172q88 -55 88 -174v-22q0 -128 -78 -190t-213 -62q-78 0 -191 22q-33 8 -32 37v37q0 37 38 37q109 -16 188 -16q79 -1 116 31t36 104v22
q0 47 -26 84q-27 37 -86 37h-201q-35 0 -35 33v41q0 35 35 35h201q113 0 112 116v15zM1399 1522q35 0 12 -39l-856 -1450q-23 -41 -45 -41h-96q-16 0 -22 11q-5 11 5 30l863 1460q12 21 18 25t22 4h99zM604 1315q0 -68 -35 -119t-112 -109q-185 -118 -220 -170
q-35 -53 -34 -120v-9h354q37 0 37 -34v-47q0 -17 -11 -27t-26 -10h-438q-14 0 -26 10q-11 10 -11 27v90q0 186 176 303l113 74h-2q68 50 87 74t19 67q0 98 -149 98q-78 0 -199 -18q-33 0 -33 37v38q0 27 31 37q82 20 201 21q278 0 278 -213z" />
    <glyph glyph-name="oneeighth" unicode="&#x215b;" horiz-adv-x="1554" 
d="M1341 614v11q0 121 -153 120h-10q-152 0 -152 -120v-11q0 -49 30 -83t93 -33h70q61 0 92 33q30 34 30 83zM1339 244v20q0 49 -29 87q-30 38 -91 38h-70q-61 0 -92 -38t-31 -87v-20q0 -135 152 -135h10q151 0 151 135zM1473 244q0 -123 -81 -188t-204 -64h-10
q-123 0 -204 66t-81 186v20q0 49 25 98t67 80q-90 68 -90 172v11q0 117 78 175t205 58h10q129 0 206 -58t76 -175v-11q0 -109 -90 -172q92 -63 93 -178v-20zM82 1348v57q0 20 20 27l164 77q25 12 66 13h12q23 0 29 -10t6 -29v-774q0 -15 -10 -27t-25 -12h-61q-14 0 -25 11
q-10 11 -10 28v667l-131 -55q-35 -12 -35 27zM1165 1522q35 0 13 -39l-856 -1450q-23 -41 -46 -41h-96q-16 0 -21 11t5 30l862 1460q12 21 18 25t23 4h98z" />
    <glyph glyph-name="threeeighths" unicode="&#x215c;" horiz-adv-x="1705" 
d="M461 1296q-1 117 -135 117q-62 0 -185 -16l-24 -2q-35 0 -35 37v36q0 27 31 39q102 20 192 21q291 0 291 -232v-14q0 -115 -88 -172q88 -55 88 -174v-23q0 -129 -78 -190t-213 -61q-78 0 -190 22q-33 8 -33 37v37q0 37 39 37q109 -17 187 -17t116 32q37 32 37 103v23
q0 47 -27 84t-86 37h-201q-35 0 -34 33v40q0 35 34 35h201q113 0 113 117v14zM1317 1522q35 0 12 -39l-856 -1450q-23 -41 -45 -41h-96q-16 0 -22 11q-5 11 5 30l863 1460q12 21 18 25t23 4h98zM1493 614v11q0 121 -154 120h-10q-152 0 -151 -120v-11q0 -49 30 -83t92 -33
h70q61 0 92 34t31 82zM1491 244v20q0 49 -30 87t-91 38h-70q-61 0 -92 -38t-30 -87v-20q0 -135 151 -135h10q152 0 152 135zM1624 244q0 -123 -81 -188t-204 -64h-10q-123 0 -204 66t-81 186v20q0 49 25 98t68 80q-90 68 -90 172v11q0 117 77 175q78 58 205 58h10
q129 0 206 -58t77 -175v-11q0 -109 -90 -172q92 -63 92 -178v-20z" />
    <glyph glyph-name="fiveeighths" unicode="&#x215d;" horiz-adv-x="1697" 
d="M608 934q0 -129 -78 -201q-78 -71 -207 -71t-208 20q-33 10 -33 37v41q0 35 39 35q96 -16 190 -17q166 0 166 156v18q0 72 -50 101t-165 28h-133q-13 1 -23 13t-10 26l29 367q6 35 39 35h381q37 0 37 -37v-49q0 -33 -37 -33h-303l-15 -205h35q172 0 259 -55t87 -191v-18z
M1485 614v11q0 121 -154 120h-10q-152 0 -152 -120v-11q0 -49 30 -83t93 -33h70q61 0 92 34t31 82zM1483 244v20q0 49 -30 87t-91 38h-70q-61 0 -92 -38t-31 -87v-20q0 -135 152 -135h10q152 0 152 135zM1616 244q0 -123 -81 -188t-204 -64h-10q-123 0 -204 66t-81 186v20
q0 49 25 98t67 80q-90 68 -90 172v11q0 117 78 175t205 58h10q129 0 206 -58t77 -175v-11q0 -109 -90 -172q92 -63 92 -178v-20zM1309 1522q35 0 12 -39l-856 -1450q-23 -41 -45 -41h-96q-16 0 -22 11q-5 11 5 30l862 1460q13 21 19 25t22 4h99z" />
    <glyph glyph-name="seveneighths" unicode="&#x215e;" horiz-adv-x="1585" 
d="M121 1403q-39 0 -39 33v47q0 16 12 27t27 12h420q80 0 80 -74q0 -43 -17 -78l-319 -682q-10 -18 -35 -18h-74q-18 0 -24 14t4 35l327 684h-362zM1372 614v11q0 121 -153 120h-11q-152 0 -151 -120v-11q-1 -49 29 -83t94 -33h69q61 0 92 34t31 82zM1370 244v20
q0 49 -30 87t-91 38h-69q-60 0 -92 -38t-31 -87v-20q0 -135 151 -135h11q151 0 151 135zM1503 244q0 -123 -81 -188t-203 -64h-11q-124 0 -204 66t-80 186v20q0 49 24 98t68 80q-90 68 -90 172v11q0 117 78 175t204 58h11q129 0 205 -58t77 -175v-11q0 -109 -90 -172
q92 -63 92 -178v-20zM1196 1522q35 0 12 -39l-856 -1450q-23 -41 -45 -41h-96q-16 0 -22 11q-5 11 6 30l862 1460q12 21 18 25t23 4h98z" />
    <glyph glyph-name="partialdiff" unicode="&#x2202;" horiz-adv-x="1146" 
d="M862 748q0 94 -54 152t-177 58q-283 0 -338 -358q-27 -182 -27 -231q0 -244 232 -244q276 0 336 360q28 169 28 263zM1065 971q0 -209 -45 -475q-94 -516 -537 -516q-201 0 -301 103t-100 288q0 82 27 247q82 487 522 488q172 0 262 -98q-2 8 -6 28q-8 188 -84 307
q-90 142 -340 142q-107 -1 -165 -11t-68 -5q-9 5 -7 20l8 59q2 33 35 41q100 20 219 21q580 0 580 -639z" />
    <glyph glyph-name="Delta" unicode="&#x2206;" horiz-adv-x="1296" 
d="M648 1374q-30 0 -40 -37l-319 -1175h719l-320 1175q-10 37 -40 37zM1237 33q0 -33 -35 -33h-1108q-35 0 -35 33q0 10 2 14l379 1333q43 156 208 156t208 -154l379 -1335q2 -4 2 -14z" />
    <glyph glyph-name="product" unicode="&#x220f;" horiz-adv-x="1312" 
d="M1270 1374q0 -20 -23 -20h-147v-1471q0 -37 -35 -37h-115q-35 0 -35 37v1471h-516v-1471q0 -37 -34 -37h-115q-35 0 -35 37v1471h-149q-23 0 -23 20v125q0 15 5 19t18 4h1181q11 0 17 -4t6 -19v-125z" />
    <glyph glyph-name="summation" unicode="&#x2211;" horiz-adv-x="1058" 
d="M946 -121q0 -33 -28 -33h-771q-35 0 -34 41v95q0 29 12 49l391 628q6 11 6 25t-6 25l-391 628q-12 20 -12 49v95q0 41 34 41h771q29 0 28 -33v-98q0 -35 -28 -35h-570q-16 0 -6 -19l363 -583q12 -18 12 -41v-58q0 -23 -12 -41l-363 -583q-10 -18 6 -19h570q29 0 28 -35
v-98z" />
    <glyph glyph-name="minus" unicode="&#x2212;" 
d="M1077 760q0 -33 -41 -33h-850q-41 0 -41 33v82q0 33 41 32h850q41 0 41 -32v-82z" />
    <glyph glyph-name="uni2215" unicode="&#x2215;" horiz-adv-x="522" 
d="M756 1522q35 0 12 -39l-856 -1450q-23 -41 -45 -41h-96q-16 0 -22 11q-5 11 5 30l862 1460q12 21 18 25t23 4h99z" />
    <glyph glyph-name="uni2219" unicode="&#x2219;" horiz-adv-x="438" 
d="M307 707q0 -17 -11 -29t-28 -12h-98q-16 0 -28 12q-11 12 -11 29v190q0 15 11 27t28 12h98q16 0 28 -11t11 -28v-190z" />
    <glyph glyph-name="radical" unicode="&#x221a;" horiz-adv-x="1495" 
d="M786 -154h-151q-29 0 -41 37l-283 926q-4 14 -8 18t-16 4h-199q-23 0 -22 25v96q0 29 22 29h303q31 0 41 -31l285 -966l536 1773q0 1 10 15t25 16h113q30 0 20 -29l-583 -1880q-8 -33 -52 -33z" />
    <glyph glyph-name="infinity" unicode="&#x221e;" horiz-adv-x="1257" 
d="M408 1114h-11q-166 0 -166 -319v-52q0 -239 69 -293q32 -26 83 -26h12q70 0 105 75q36 75 64 277t38 234q-88 104 -194 104zM1028 745v52q0 141 -18 206q-18 64 -52 89t-81 24h-13q-74 0 -106 -72t-62 -268q-29 -196 -47 -252q86 -98 199 -98h12q168 0 168 319zM1176 745
q0 -444 -316 -444h-12q-158 0 -254 107q-72 -111 -199 -111h-12q-214 0 -272 207q-29 102 -29 239v52q0 446 313 446h15q147 0 249 -108q72 111 205 110h13q263 0 293 -324q5 -54 6 -122v-52z" />
    <glyph glyph-name="integral" unicode="&#x222b;" horiz-adv-x="923" 
d="M846 1434q0 -20 -23 -19q-79 4 -157 4t-97 -31q-18 -32 -18 -145v-1339q0 -78 -8 -127q-21 -130 -117 -169q-57 -24 -151 -24t-177 21q-20 2 -20 26v82q0 20 22 19q78 -4 157 -4t97 32t19 144v1339q0 78 8 127t34 97q52 96 228 96q100 0 182 -21q20 -2 21 -26v-82z" />
    <glyph glyph-name="approxequal" unicode="&#x2248;" 
d="M985 618q0 -215 -182 -215q-86 0 -160 58l-106 86q-57 45 -91 45q-57 0 -57 -94v-43q0 -35 -35 -35h-63q-33 0 -33 35v43q0 109 49 166t133 57q43 0 76 -14t88 -58l117 -92q37 -29 78 -29q55 0 55 90v48q0 35 35 34h63q33 0 33 -34v-48zM985 1110q0 -215 -182 -215
q-86 0 -160 57l-106 86q-57 45 -91 45q-57 0 -57 -94v-43q0 -35 -35 -35h-63q-33 0 -33 35v43q0 109 49 166t133 57q43 0 76 -14t88 -57l117 -92q37 -29 78 -29q55 0 55 90v47q0 35 35 35h63q33 0 33 -35v-47z" />
    <glyph glyph-name="notequal" unicode="&#x2260;" 
d="M1055 535q0 -33 -41 -33h-416l-158 -463q-12 -39 -51 -39h-76q-14 0 -22 11t-4 28l157 463h-219q-41 0 -41 33v81q0 33 41 33h271l104 305h-375q-41 0 -41 33v82q0 33 41 33h426l135 393q12 39 52 39h75q15 0 23 -11t4 -28l-135 -393h209q41 0 41 -33v-82q0 -33 -41 -33
h-260l-105 -305h365q41 0 41 -33v-81z" />
    <glyph glyph-name="lessequal" unicode="&#x2264;" horiz-adv-x="1075" 
d="M1004 33q0 -33 -41 -33h-850q-41 0 -41 33v67q0 33 41 33h850q41 0 41 -33v-67zM829 334q0 -23 -26 -23h-141q-27 0 -50 25l-411 412q-27 20 -27 66t27 67l411 411q23 25 50 25h141q27 0 26 -23q0 -16 -16 -30l-451 -449l451 -450q16 -15 16 -31z" />
    <glyph glyph-name="greaterequal" unicode="&#x2265;" horiz-adv-x="1075" 
d="M72 33v67q0 33 41 33h850q41 0 41 -33v-67q0 -33 -41 -33h-850q-41 0 -41 33zM246 334q0 16 16 31l451 450l-451 449q-16 14 -16 30q0 23 26 23h142q27 0 49 -25l411 -411q27 -21 27 -67t-27 -66l-411 -412q-23 -25 -49 -25h-142q-26 0 -26 23z" />
    <glyph glyph-name="lozenge" unicode="&#x25ca;" horiz-adv-x="1058" 
d="M809 734q0 19 -23 52l-217 277q-19 27 -37 27t-43 -27l-217 -277q-20 -28 -20 -52t24 -54l211 -264q31 -33 43 -33t43 33l211 264q25 35 25 54zM977 737q0 -47 -45 -102l-316 -389q-47 -60 -87 -60t-87 60l-315 389q-45 59 -45 104t45 103l319 399q37 45 84 45t82 -45
l320 -399q45 -58 45 -105z" />
    <glyph glyph-name="commaaccent" unicode="&#xf6c3;" horiz-adv-x="700" 
d="M317 -100h142q23 0 22 -23l-2 -16l-110 -223q-17 -33 -27 -36t-23 -3h-83q-25 0 -17 32l57 230q8 39 41 39z" />
    <glyph glyph-name="zero.oldstyle" 
d="M936 551v31q0 207 -83 307t-233 100t-232 -100q-83 -100 -83 -307v-31q0 -207 83 -307t233 -100q151 0 233 100t82 307zM1122 551q0 -285 -131 -425t-371 -140t-371 140q-132 140 -132 425v31q0 285 132 425t372 140q241 0 371 -140t130 -425v-31z" />
    <glyph glyph-name="one.oldstyle" horiz-adv-x="880" 
d="M580 41q0 -17 -10 -29t-27 -12h-113q-37 0 -37 41v893l-264 -115q-16 -6 -27 -6q-18 0 -18 23v104q0 14 20 27l310 147q25 12 43 12h84q16 0 27 -11t12 -28v-1046z" />
    <glyph glyph-name="two.oldstyle" horiz-adv-x="1146" 
d="M572 1147q230 0 348 -77q116 -77 116 -246t-104 -262t-298 -166q-194 -74 -250 -116t-77 -118h670q41 0 41 -35v-90q0 -37 -41 -37h-813q-16 0 -29 11q-12 11 -12 28v78q0 88 24 150q53 129 321 241q62 26 71 31t18 8q193 82 245 124t52 143t-68 139t-227 38t-375 -30h-8
q-33 0 -33 36v72q0 29 39 37q160 41 390 41z" />
    <glyph glyph-name="three.oldstyle" 
d="M1067 35q0 -221 -137 -330t-373 -108q-168 0 -346 41q-39 8 -39 38v70q0 35 35 35h6q215 -29 363 -29t225 68q76 68 76 215v43q-1 98 -57 174t-183 76h-373q-39 0 -39 37v71q0 39 39 39h373q133 0 186 72t54 172v29q0 127 -74 185t-246 58q-94 0 -344 -30h-6
q-35 0 -35 34v72q0 31 39 39q197 41 346 41q246 0 378 -92t132 -307v-29q0 -105 -50 -189t-145 -131q195 -96 195 -321v-43z" />
    <glyph glyph-name="four.oldstyle" 
d="M758 164v700q0 12 -8 13h-2q-8 0 -17 -13l-473 -671q-6 -9 -6 -19t16 -10h490zM1161 45q0 -37 -39 -37h-178v-364q0 -41 -35 -41h-118q-35 0 -35 41v364h-592q-48 0 -66 18t-18 62v78q0 43 24 76l607 850q20 33 59 32h121q53 0 53 -45v-915h178q39 0 39 -37v-82z" />
    <glyph glyph-name="five.oldstyle" 
d="M219 373q-31 0 -33 35v2l58 682q4 35 41 34h704q41 0 41 -34v-91q0 -33 -41 -32h-588l-32 -443h96q303 0 460 -97t156 -331v-30q0 -226 -137 -352q-136 -126 -364 -126t-381 37q-39 10 -39 41v76q0 31 30 31h11q164 -29 358 -29q334 0 334 322v30q0 152 -99 213t-329 62
h-246z" />
    <glyph glyph-name="six.oldstyle" 
d="M934 504v12q0 154 -89 218t-240 65q-151 0 -298 -37v-195q0 -240 77 -335q78 -95 232 -95t236 85t82 282zM1057 1382q0 -42 -49 -34q-168 32 -306 32t-202 -22q-66 -22 -103 -59q-90 -88 -90 -373v-23q186 41 309 41q222 0 362 -99t140 -329v-12q0 -248 -126 -383
t-368 -135t-372 144t-129 437v359q0 322 133 466t401 144q195 0 353 -35q47 -12 47 -39v-80z" />
    <glyph glyph-name="seven.oldstyle" horiz-adv-x="1153" 
d="M1044 995q0 -49 -26 -106l-590 -1256q-14 -31 -45 -30h-123q-31 0 -31 30q0 10 7 23l618 1286q2 2 2 8q0 14 -14 15h-699q-41 0 -41 34v86q0 15 12 27t29 12h748q153 0 153 -129z" />
    <glyph glyph-name="eight.oldstyle" 
d="M942 424v39q0 102 -64 180q-65 78 -194 78h-127q-129 0 -193 -78t-65 -180v-39q0 -133 81 -208t230 -75h21q151 0 231 75t80 208zM944 1114v19q0 123 -81 187t-232 64h-21q-152 0 -232 -64t-81 -187v-19q0 -104 63 -175t197 -71h127q133 0 197 71q63 71 63 175zM1128 424
q0 -215 -140 -327t-357 -111h-21q-217 0 -357 112t-140 326v39q0 96 52 188t146 144q-94 49 -144 132t-50 187v19q0 203 135 303t358 100h21q223 0 358 -100t135 -303v-19q0 -104 -50 -187t-144 -132q94 -51 146 -143t52 -189v-39z" />
    <glyph glyph-name="nine.oldstyle" 
d="M606 995q-156 0 -238 -84t-81 -282v-13q0 -154 89 -218q90 -64 240 -64t297 37l2 194q0 240 -76 335q-77 95 -233 95zM533 -248q205 0 283 74t93 229q6 61 6 152v22q-190 -41 -309 -41q-225 0 -364 100t-140 328v13q0 248 127 383t369 135q242 -1 372 -145t130 -437v-358
q0 -322 -133 -466t-402 -144q-195 0 -352 34q-49 12 -49 39v80q0 37 37 37q210 -35 332 -35z" />
    <glyph glyph-name="uni2014.alt" horiz-adv-x="1228" 
d="M1098 655q37 0 39 -37v-79q0 -35 -39 -35h-967q-39 0 -39 35v79q0 16 11 26t28 11h967z" />
    <glyph glyph-name="a.superior" horiz-adv-x="647" 
d="M444 965h-73q-96 0 -131 -24t-35 -79v-14q0 -98 94 -96q65 0 145 43v170zM119 1231v41q0 31 33 31q82 14 180 14q233 0 233 -225v-402q0 -14 -9 -23t-21 -10h-56q-33 0 -33 33v8q-88 -49 -167 -49q-197 0 -197 197v14q0 100 65 149q66 48 224 48h73v35q0 66 -26 94
t-92 26q-64 0 -150 -8l-26 -2q-31 0 -31 29z" />
    <glyph glyph-name="b.superior" horiz-adv-x="649" 
d="M333 758q71 0 103 46t31 140v82q0 184 -139 184q-86 0 -125 -6v-440q59 -6 130 -6zM588 944q0 -139 -65 -217t-187 -78t-221 21q-23 2 -28 10t-5 27v804q0 33 31 33h57q33 0 33 -33v-202q57 8 125 8q128 0 194 -75t66 -216v-82z" />
    <glyph glyph-name="d.superior" horiz-adv-x="651" 
d="M184 944q0 -186 133 -186q69 0 129 6v440q-54 6 -126 6t-104 -46t-32 -138v-82zM569 707q0 -33 -32 -37q-102 -20 -223 -20t-187 77q-66 78 -66 217v82q0 141 67 216t196 75q66 0 122 -8v202q0 33 33 33h58q33 0 32 -33v-804z" />
    <glyph glyph-name="e.superior" horiz-adv-x="651" 
d="M469 1038q0 172 -142 172t-143 -172h285zM590 977q0 -35 -31 -35h-375v-6q0 -94 36 -136t136 -42t185 12q31 0 30 -27v-36q0 -31 -30 -37q-281 -60 -403 46q-77 67 -77 220v102q0 131 70 205t198 74q129 0 195 -74t66 -205v-61z" />
    <glyph glyph-name="l.superior" horiz-adv-x="288" 
d="M207 690q0 -12 -9 -22t-24 -11h-59q-33 0 -33 33v821q0 33 33 33h59q33 0 33 -33v-821z" />
    <glyph glyph-name="m.superior" horiz-adv-x="944" 
d="M862 690q0 -33 -33 -33h-55q-33 0 -33 33v408q0 113 -94 112q-41 0 -121 -26q8 -33 9 -84v-410q1 -12 -9 -22t-24 -11h-62q-31 0 -30 33v410q0 66 -18 88t-64 22q-47 0 -125 -39v-481q0 -12 -9 -22t-22 -11h-61q-29 0 -29 33v588q0 33 31 33h57q33 0 33 -33v-2
q75 43 153 43t121 -41q102 41 191 41q195 0 194 -221v-408z" />
    <glyph glyph-name="n.superior" horiz-adv-x="667" 
d="M586 690q0 -33 -35 -33h-53q-33 0 -33 33v379q0 80 -28 111q-28 30 -89 30t-145 -39v-481q0 -12 -10 -22t-23 -11h-55q-33 0 -33 33v588q0 33 33 33h55q33 0 33 -33v-4q84 43 174 43q209 0 209 -248v-379z" />
    <glyph glyph-name="o.superior" horiz-adv-x="655" 
d="M473 940v86q0 184 -144 184t-145 -184v-86q0 -182 144 -182t145 182zM594 940q0 -135 -69 -213t-197 -78t-198 78q-69 78 -69 213v86q0 135 69 213t198 78q130 0 198 -78t68 -213v-86z" />
    <glyph glyph-name="r.superior" horiz-adv-x="428" 
d="M387 1241q0 -31 -35 -31q-74 0 -149 -45v-475q0 -12 -10 -22t-23 -11h-55q-33 0 -33 33v588q0 33 33 33h51q33 0 33 -33v-6q74 45 153 45q35 0 35 -29v-47z" />
    <glyph glyph-name="s.superior" horiz-adv-x="563" 
d="M502 833q0 -184 -223 -184q-113 0 -187 19q-31 4 -31 32v39q0 27 37 27q110 -12 172 -12t86 16t25 56q0 40 -80 87l-117 70q-123 72 -123 174q0 160 220 160q109 0 182 -14q29 0 29 -31v-39q0 -31 -33 -31q-101 10 -165 10t-87 -10t-23 -45t74 -82q84 -49 113 -65
q131 -81 131 -177z" />
    <glyph glyph-name="t.superior" horiz-adv-x="448" 
d="M20 1249v31q0 31 33 31h101v102q0 33 32 33l64 8q29 0 29 -27v-116h112q33 0 33 -33v-39q0 -35 -33 -35h-112v-391q0 -39 10 -51t39 -12h65q35 0 35 -25v-39q0 -27 -29 -31q-35 -6 -101 -6t-105 34t-39 130v391q-91 13 -103 15q-31 0 -31 30z" />
    <glyph glyph-name="h.superior" horiz-adv-x="667" 
d="M586 690q0 -33 -35 -33h-53q-33 0 -33 33v379q0 80 -28 111q-28 30 -89 30t-145 -39v-481q0 -12 -10 -22t-23 -11h-55q-33 0 -33 33v821q0 33 33 33h55q33 0 33 -33v-237q84 43 174 43q209 0 209 -248v-379z" />
    <glyph glyph-name="zero.fitted" 
d="M936 623v276q0 479 -315 479t-316 -479v-276q0 -479 316 -480q315 1 315 480zM1122 623q0 -637 -502 -637t-503 637v276q0 637 503 637t502 -637v-276z" />
    <glyph glyph-name="one.fitted" horiz-adv-x="837" 
d="M580 41q0 -17 -10 -29t-27 -12h-113q-37 0 -37 41v1288l-264 -115q-14 -6 -27 -6q-18 0 -18 23v104q0 14 20 27l310 147q25 12 43 13h84q16 0 27 -12t12 -27v-1442z" />
    <glyph glyph-name="two.fitted" 
d="M895 1180q0 200 -299 200q-155 0 -371 -30h-8q-33 0 -33 36v72q0 29 39 37q159 41 387 41q466 0 467 -367q0 -119 -60 -207t-206 -188l-197 -133q-168 -113 -227 -206t-59 -230v-43h690q41 0 41 -35v-90q0 -37 -41 -37h-813q-16 0 -29 11q-12 11 -12 28v166
q0 330 313 538l207 140q129 88 170 142q41 55 41 155z" />
    <glyph glyph-name="three.fitted" 
d="M1067 424q0 -221 -137 -330t-373 -108q-168 0 -346 41q-39 8 -39 39v69q0 35 35 35h6q215 -29 363 -29t225 68q76 68 76 215v43q-1 98 -57 174t-183 76h-373q-39 0 -39 37v71q0 39 39 39h373q133 0 186 72t54 172v29q0 127 -74 185t-246 58q-94 0 -344 -30h-6
q-35 0 -35 34v72q0 31 39 39q197 41 346 41q246 0 378 -92t132 -307v-29q0 -104 -50 -188t-145 -132q195 -96 195 -321v-43z" />
    <glyph glyph-name="four.fitted" 
d="M758 561v701q0 12 -8 12h-2q-8 0 -17 -12l-473 -672q-6 -8 -6 -18t16 -11h490zM1161 442q0 -37 -39 -36h-178v-365q0 -41 -35 -41h-118q-35 0 -35 41v365h-592q-47 0 -66 17q-18 17 -18 62v78q0 43 24 76l607 850q20 33 59 33h121q53 0 53 -45v-916h178q39 0 39 -37v-82z
" />
    <glyph glyph-name="five.fitted" 
d="M219 768q-31 0 -33 35v2l58 682q4 35 41 35h704q41 0 41 -35v-90q0 -33 -41 -33h-588l-32 -442h96q303 0 460 -98t156 -330v-31q0 -227 -137 -352q-136 -125 -364 -125t-381 37q-39 10 -39 40v76q0 31 30 31h11q164 -29 358 -29q334 0 334 322v31q0 152 -99 213t-329 61
h-246z" />
    <glyph glyph-name="six.fitted" 
d="M934 504v12q0 154 -89 218t-240 65q-151 0 -298 -37v-195q0 -240 77 -335q78 -95 232 -95t236 85t82 282zM1057 1382q0 -42 -49 -34q-168 32 -306 32t-202 -22q-66 -22 -103 -59q-90 -88 -90 -373v-23q186 41 309 41q222 0 362 -99t140 -329v-12q0 -248 -126 -383
t-368 -135t-372 144t-129 437v359q0 322 133 466t401 144q195 0 353 -35q47 -12 47 -39v-80z" />
    <glyph glyph-name="seven.fitted" horiz-adv-x="1107" 
d="M1024 1393q0 -49 -27 -107l-589 -1255q-14 -31 -46 -31h-122q-31 0 -31 31q0 10 6 22l619 1286q2 2 2 9q0 14 -15 14h-698q-41 0 -41 35v86q0 16 12 27t29 12h747q154 0 154 -129z" />
    <glyph glyph-name="eight.fitted" 
d="M942 424v39q0 102 -64 180q-65 78 -194 78h-127q-129 0 -193 -78t-65 -180v-39q0 -133 81 -208t230 -75h21q151 0 231 75t80 208zM944 1114v19q0 123 -81 187t-232 64h-21q-152 0 -232 -64t-81 -187v-19q0 -104 63 -175t197 -71h127q133 0 197 71q63 71 63 175zM1128 424
q0 -215 -140 -327t-357 -111h-21q-217 0 -357 112t-140 326v39q0 96 52 188t146 144q-94 49 -144 132t-50 187v19q0 203 135 303t358 100h21q223 0 358 -100t135 -303v-19q0 -104 -50 -187t-144 -132q94 -51 146 -143t52 -189v-39z" />
    <glyph glyph-name="nine.fitted" 
d="M606 1384q-156 0 -238 -84t-81 -282v-12q0 -154 89 -219q90 -65 240 -65t297 38l2 194q0 240 -76 335q-77 95 -233 95zM533 141q205 0 283 73t93 230q6 61 6 152v22q-190 -41 -309 -40q-225 0 -364 99t-140 329v12q0 248 127 383t369 135t372 -144t130 -438v-358
q0 -322 -133 -466t-402 -144q-195 0 -352 34q-49 12 -49 39v80q0 37 37 37q210 -35 332 -35z" />
    <glyph glyph-name="zero.taboldstyle" 
d="M936 551v31q0 207 -83 307t-233 100t-232 -100q-83 -100 -83 -307v-31q0 -207 83 -307t233 -100q151 0 233 100t82 307zM1122 551q0 -285 -131 -425t-371 -140t-371 140q-132 140 -132 425v31q0 285 132 425t372 140q241 0 371 -140t130 -425v-31z" />
    <glyph glyph-name="one.taboldstyle" 
d="M1024 0h-840q-41 0 -41 37v90q0 35 41 35h326v770l-322 -135q-45 -16 -45 16v105q0 14 21 26l366 168q25 12 43 12h84q15 0 27 -11t12 -28v-923h328q41 0 41 -35v-90q0 -37 -41 -37z" />
    <glyph glyph-name="two.taboldstyle" 
d="M614 1147q230 0 346 -77t117 -246q0 -169 -104 -262t-298 -166q-194 -74 -250 -116t-77 -118h670q41 0 41 -35v-90q0 -37 -41 -37h-813q-16 0 -29 11q-12 11 -12 28v78q0 88 24 150q52 129 320 241q62 26 70 30q7 4 20 9q193 82 245 124t52 143t-68 139t-227 38t-375 -30
h-8q-33 0 -33 36v72q0 29 39 37q161 41 391 41z" />
    <glyph glyph-name="three.taboldstyle" 
d="M1067 35q0 -221 -137 -330t-373 -108q-168 0 -346 41q-39 8 -39 38v70q0 35 35 35h6q215 -29 363 -29t225 68q76 68 76 215v43q-1 98 -57 174t-183 76h-373q-39 0 -39 37v71q0 39 39 39h373q133 0 186 72t54 172v29q0 127 -74 185t-246 58q-94 0 -344 -30h-6
q-35 0 -35 34v72q0 31 39 39q197 41 346 41q246 0 378 -92t132 -307v-29q0 -105 -50 -189t-145 -131q195 -96 195 -321v-43z" />
    <glyph glyph-name="four.taboldstyle" 
d="M758 164v700q0 12 -8 13h-2q-8 0 -17 -13l-473 -671q-6 -9 -6 -19t16 -10h490zM1161 45q0 -37 -39 -37h-178v-364q0 -41 -35 -41h-118q-35 0 -35 41v364h-592q-48 0 -66 18t-18 62v78q0 43 24 76l607 850q20 33 59 32h121q53 0 53 -45v-915h178q39 0 39 -37v-82z" />
    <glyph glyph-name="five.taboldstyle" 
d="M219 373q-31 0 -33 35v2l58 682q4 35 41 34h704q41 0 41 -34v-91q0 -33 -41 -32h-588l-32 -443h96q303 0 460 -97t156 -331v-30q0 -226 -137 -352q-136 -126 -364 -126t-381 37q-39 10 -39 41v76q0 31 30 31h11q164 -29 358 -29q334 0 334 322v30q0 152 -99 213t-329 62
h-246z" />
    <glyph glyph-name="six.taboldstyle" 
d="M934 504v12q0 154 -89 218t-240 65q-151 0 -298 -37v-195q0 -240 77 -335q78 -95 232 -95t236 85t82 282zM1057 1382q0 -42 -49 -34q-168 32 -306 32t-202 -22q-66 -22 -103 -59q-90 -88 -90 -373v-23q186 41 309 41q222 0 362 -99t140 -329v-12q0 -248 -126 -383
t-368 -135t-372 144t-129 437v359q0 322 133 466t401 144q195 0 353 -35q47 -12 47 -39v-80z" />
    <glyph glyph-name="seven.taboldstyle" 
d="M1092 995q0 -49 -27 -106l-590 -1256q-16 -31 -45 -30h-123q-31 0 -31 30q0 10 7 23l618 1286q2 2 2 8q0 14 -14 15h-699q-41 0 -40 34v86q0 15 12 27t28 12h748q154 0 154 -129z" />
    <glyph glyph-name="eight.taboldstyle" 
d="M942 424v39q0 102 -64 180q-65 78 -194 78h-127q-129 0 -193 -78t-65 -180v-39q0 -133 81 -208t230 -75h21q151 0 231 75t80 208zM944 1114v19q0 123 -81 187t-232 64h-21q-152 0 -232 -64t-81 -187v-19q0 -104 63 -175t197 -71h127q133 0 197 71q63 71 63 175zM1128 424
q0 -215 -140 -327t-357 -111h-21q-217 0 -357 112t-140 326v39q0 96 52 188t146 144q-94 49 -144 132t-50 187v19q0 203 135 303t358 100h21q223 0 358 -100t135 -303v-19q0 -104 -50 -187t-144 -132q94 -51 146 -143t52 -189v-39z" />
    <glyph glyph-name="nine.taboldstyle" 
d="M606 995q-156 0 -238 -84t-81 -282v-13q0 -154 89 -218q90 -64 240 -64t297 37l2 194q0 240 -76 335q-77 95 -233 95zM533 -248q205 0 283 74t93 229q6 61 6 152v22q-190 -41 -309 -41q-225 0 -364 100t-140 328v13q0 248 127 383t369 135q242 -1 372 -145t130 -437v-358
q0 -322 -133 -466t-402 -144q-195 0 -352 34q-49 12 -49 39v80q0 37 37 37q210 -35 332 -35z" />
    <glyph glyph-name="zero.denominator" horiz-adv-x="681" 
d="M494 350v148q0 244 -152 243q-154 0 -154 -243v-148q0 -240 154 -239q152 -1 152 239zM627 350q0 -358 -287 -358t-287 358v148q0 360 287 360t287 -360v-148z" />
    <glyph glyph-name="one.denominator" horiz-adv-x="681" 
d="M193 735q0 20 20 27l164 78q25 12 65 12h13q23 0 29 -9t5 -30v-774q0 -15 -10 -27t-24 -12h-62q-14 0 -24 11t-11 28v668l-131 -56q-35 -12 -34 27v57z" />
    <glyph glyph-name="two.denominator" horiz-adv-x="681" 
d="M602 645q0 -68 -35 -119t-112 -108q-184 -117 -219 -170q-36 -53 -35 -121v-8h354q37 0 37 -35v-47q0 -17 -11 -27t-26 -10h-438q-14 0 -26 10q-11 10 -11 27v90q0 186 176 303l113 74h-2q68 49 87 74t19 67q0 98 -149 98q-78 0 -199 -18q-33 0 -33 37v39q0 27 31 37
q82 20 201 20q278 0 278 -213z" />
    <glyph glyph-name="three.denominator" horiz-adv-x="681" 
d="M463 627q-1 119 -135 117q-62 0 -185 -17l-24 -2q-35 0 -35 37v37q0 27 31 39q102 20 192 20q291 0 291 -231v-15q0 -115 -88 -172q88 -55 88 -174v-22q0 -128 -78 -190t-213 -62q-78 0 -190 22q-33 8 -33 37v37q0 37 39 37q109 -16 187 -16q78 -1 116 31q37 32 37 104
v22q0 47 -27 84t-86 37h-200q-35 0 -35 33v41q0 35 35 35h200q113 0 113 116v15z" />
    <glyph glyph-name="four.denominator" horiz-adv-x="681" 
d="M399 334v332l-231 -332h231zM649 254q0 -35 -39 -35h-78v-180q0 -15 -10 -27t-26 -12h-64q-35 0 -35 39v180h-301q-35 0 -49 12t-14 45v41q0 31 16 54l332 458q12 23 41 23h63q47 0 47 -41v-477h78q16 0 28 -10t11 -25v-45z" />
    <glyph glyph-name="five.denominator" horiz-adv-x="681" 
d="M604 264q0 -129 -78 -201q-78 -71 -207 -71t-208 20q-33 10 -33 37v41q0 35 39 35q96 -16 190 -16q166 0 166 155v19q0 73 -50 101t-165 28h-133q-12 0 -23 12q-10 12 -10 27l29 366q6 35 39 35h381q37 0 37 -37v-49q0 -33 -37 -33h-303l-15 -205h35q172 0 259 -55
t87 -190v-19z" />
    <glyph glyph-name="six.denominator" horiz-adv-x="681" 
d="M494 287v8q0 135 -154 135q-88 0 -150 -16v-95q0 -119 37 -165t113 -48q154 1 154 181zM625 287q0 -141 -72 -218t-209 -77t-212 82t-75 245v195q0 182 76 263t229 81q111 0 193 -18q37 -8 37 -37v-43q0 -27 -16 -31t-97 5q-80 9 -117 9q-106 0 -139 -54t-33 -167
q70 18 174 18t182 -56q79 -58 79 -189v-8z" />
    <glyph glyph-name="seven.denominator" horiz-adv-x="681" 
d="M111 733q-39 0 -39 33v47q0 15 11 27t28 12h419q80 0 80 -74q0 -43 -16 -78l-320 -682q-8 -18 -34 -18h-74q-18 0 -25 14q-6 15 4 35l328 684h-362z" />
    <glyph glyph-name="eight.denominator" horiz-adv-x="681" 
d="M500 614v11q0 121 -154 120h-10q-152 0 -152 -120v-11q0 -49 30 -83t93 -33h70q61 0 92 34t31 82zM498 244v20q0 49 -30 87t-91 38h-70q-61 0 -92 -38t-31 -87v-20q0 -135 152 -135h10q152 0 152 135zM631 244q0 -123 -81 -188t-204 -64h-10q-123 0 -204 66t-81 186v20
q0 49 25 98t67 80q-90 68 -90 172v11q0 117 78 175t205 58h10q129 0 206 -58t77 -175v-11q0 -109 -90 -172q92 -63 92 -178v-20z" />
    <glyph glyph-name="nine.denominator" horiz-adv-x="681" 
d="M190 565v-8q0 -135 154 -135q88 0 150 16v94q0 119 -37 166t-113 47q-154 0 -154 -180zM59 565q0 141 72 218t209 77t212 -82t75 -246v-194q0 -182 -76 -263t-229 -81q-111 0 -193 18q-37 8 -37 37v43q0 27 16 31t97 -5q80 -9 117 -9q106 0 139 54t33 167
q-70 -18 -174 -18t-182 56q-79 58 -79 189v8z" />
    <glyph glyph-name="zero.numerator" horiz-adv-x="681" 
d="M494 1020v147q0 244 -153 244t-153 -244v-147q0 -240 153 -240t153 240zM627 1020q0 -358 -287 -358t-287 358v147q0 360 289 361q285 0 285 -361v-147z" />
    <glyph glyph-name="one.numerator" horiz-adv-x="681" 
d="M133 1348v57q0 20 21 27l163 77q25 12 66 13h12q23 0 29 -10t6 -29v-774q0 -15 -10 -27t-25 -12h-61q-14 0 -25 11q-10 11 -10 28v667l-131 -55q-35 -12 -35 27z" />
    <glyph glyph-name="two.numerator" horiz-adv-x="681" 
d="M602 1315q0 -68 -35 -119t-112 -109q-185 -118 -220 -170q-35 -53 -34 -120v-9h354q37 0 37 -34v-47q0 -17 -11 -27t-26 -10h-438q-14 0 -26 10q-11 10 -11 27v90q0 186 176 303l113 74h-2q68 50 87 74t19 67q0 98 -149 98q-78 0 -199 -18q-33 0 -33 37v38q0 27 31 37
q82 20 201 21q278 0 278 -213z" />
    <glyph glyph-name="three.numerator" horiz-adv-x="681" 
d="M463 1296q-1 117 -135 117q-62 0 -185 -16l-24 -2q-35 0 -35 37v36q0 27 31 39q102 20 192 21q291 0 291 -232v-14q0 -115 -88 -172q88 -55 88 -174v-23q0 -129 -78 -190t-213 -61q-78 0 -190 22q-33 8 -33 37v37q0 37 39 37q109 -17 187 -17t116 32q37 32 37 103v23
q0 47 -27 84t-86 37h-200q-35 0 -35 33v40q0 35 35 35h200q113 0 113 117v14z" />
    <glyph glyph-name="four.numerator" horiz-adv-x="681" 
d="M399 1004v331l-231 -331h231zM649 924q0 -35 -39 -35h-78v-180q0 -15 -10 -27t-26 -12h-64q-35 0 -35 39v180h-301q-35 0 -49 12t-14 45v41q0 31 16 53l332 459q12 23 41 23h63q47 0 47 -41v-477h78q16 0 28 -10t11 -25v-45z" />
    <glyph glyph-name="five.numerator" horiz-adv-x="681" 
d="M604 934q0 -129 -78 -201q-78 -71 -207 -71t-208 20q-33 10 -33 37v41q0 35 39 35q96 -16 190 -17q166 0 166 156v18q0 72 -50 101t-165 28h-133q-13 1 -23 13t-10 26l29 367q6 35 39 35h381q37 0 37 -37v-49q0 -33 -37 -33h-303l-15 -205h35q172 0 259 -55t87 -191v-18z
" />
    <glyph glyph-name="six.numerator" horiz-adv-x="681" 
d="M494 956v9q0 135 -154 135q-88 0 -150 -17v-94q0 -119 37 -166t113 -47q154 0 154 180zM625 956q0 -141 -72 -218q-72 -76 -209 -76t-212 82t-75 245v195q0 182 76 263t229 81q111 0 193 -19q37 -8 37 -36v-43q0 -27 -16 -31t-97 5q-80 9 -117 9q-106 0 -139 -54
t-33 -167q70 18 174 18t182 -57q79 -57 79 -188v-9z" />
    <glyph glyph-name="seven.numerator" horiz-adv-x="681" 
d="M111 1403q-39 0 -39 33v47q0 16 11 27t28 12h419q80 0 80 -74q0 -43 -16 -78l-320 -682q-8 -18 -34 -18h-74q-18 0 -25 14q-6 15 4 35l328 684h-362z" />
    <glyph glyph-name="eight.numerator" horiz-adv-x="681" 
d="M500 1284v10q0 121 -154 121h-10q-152 0 -152 -121v-10q0 -49 30 -83t93 -34h70q61 0 92 34t31 83zM498 913v21q0 49 -30 87t-91 38h-70q-61 0 -92 -38t-31 -87v-21q0 -135 152 -135h10q152 0 152 135zM631 913q0 -123 -81 -187t-204 -64h-10q-123 0 -204 66t-81 185v21
q0 49 25 98t67 80q-90 68 -90 172v10q0 117 78 175t205 59h10q129 0 206 -58t77 -176v-10q0 -109 -90 -172q92 -63 92 -178v-21z" />
    <glyph glyph-name="nine.numerator" horiz-adv-x="681" 
d="M190 1235v-8q0 -135 154 -135q88 0 150 16v94q0 119 -37 166t-113 47q-154 0 -154 -180zM59 1235q0 141 72 218t209 77t212 -82t75 -246v-194q0 -182 -76 -264t-229 -80q-111 0 -193 18q-37 8 -37 37v43q0 27 16 31t97 -5q80 -9 117 -10q106 0 139 54t33 167
q-70 -18 -174 -18t-182 57q-79 57 -79 189v8z" />
    <glyph glyph-name="i.dot" horiz-adv-x="505" 
d="M342 41q0 -17 -12 -29t-29 -12h-98q-16 0 -29 12q-12 12 -12 29v1044q0 17 12 29t29 12h98q17 0 29 -12t12 -29v-1044zM346 1348q0 -16 -12 -28t-29 -13h-104q-16 0 -29 12q-12 12 -12 29v163q0 17 12 29t29 12h104q17 0 29 -12t12 -29v-163z" />
    </font>
</defs>
</svg>
